<?xml version="1.0" standalone="no"?>
<!DOCTYPE svg PUBLIC "-//W3C//DTD SVG 20010904//EN"
 "http://www.w3.org/TR/2001/REC-SVG-20010904/DTD/svg10.dtd">
<svg version="1.0" xmlns="http://www.w3.org/2000/svg"
 width="960.000000pt" height="960.000000pt" viewBox="0 0 960.000000 960.000000"
 preserveAspectRatio="xMidYMid meet">

<g transform="translate(0.000000,960.000000) scale(0.100000,-0.100000)"
fill="#000000" stroke="none">
<path d="M2215 8051 c-3 -6 4 -9 15 -8 11 1 20 5 20 9 0 11 -28 10 -35 -1z"/>
<path d="M2210 8026 c0 -2 7 -6 15 -10 8 -3 15 -1 15 4 0 6 -7 10 -15 10 -8 0
-15 -2 -15 -4z"/>
<path d="M48 7983 c7 -3 16 -2 19 1 4 3 -2 6 -13 5 -11 0 -14 -3 -6 -6z"/>
<path d="M98 7983 c12 -2 32 -2 45 0 12 2 2 4 -23 4 -25 0 -35 -2 -22 -4z"/>
<path d="M898 7953 c12 -2 32 -2 45 0 12 2 2 4 -23 4 -25 0 -35 -2 -22 -4z"/>
<path d="M1193 7943 c9 -2 25 -2 35 0 9 3 1 5 -18 5 -19 0 -27 -2 -17 -5z"/>
<path d="M1783 7923 c9 -2 23 -2 30 0 6 3 -1 5 -18 5 -16 0 -22 -2 -12 -5z"/>
<path d="M0 7885 c0 -12 14 -15 63 -17 34 -1 73 -3 87 -4 14 -1 41 -2 60 -3
29 -2 32 -4 15 -11 -17 -7 -15 -9 13 -9 17 -1 32 4 32 9 0 6 11 10 25 10 14 0
25 -4 25 -10 0 -5 5 -10 11 -10 5 0 7 5 4 10 -8 13 5 13 38 -2 15 -7 27 -19
27 -26 0 -17 -25 -42 -42 -42 -8 1 -7 6 6 15 10 7 15 18 11 24 -8 14 -35 14
-35 1 0 -5 -7 -10 -15 -10 -8 0 -15 9 -15 20 0 33 -16 23 -18 -12 -3 -35 -12
-50 -19 -30 -3 6 -11 12 -19 12 -8 0 -14 -6 -14 -12 0 -7 -5 -5 -11 5 -12 21
-29 22 -29 3 0 -8 -6 -16 -12 -19 -8 -2 -9 -8 -4 -13 5 -5 11 -4 13 4 7 17 23
15 23 -4 0 -13 -8 -15 -35 -12 -39 4 -43 1 -18 -17 14 -11 12 -13 -15 -23 -19
-6 -32 -18 -32 -28 0 -12 -6 -15 -22 -10 -13 3 -36 6 -52 6 -23 0 -27 3 -18
12 7 7 12 22 12 34 0 12 6 25 12 27 9 4 8 6 -2 6 -19 1 -50 -48 -50 -78 0 -14
6 -21 20 -21 11 0 20 -4 20 -10 0 -5 -8 -10 -18 -10 -17 0 -19 -9 -20 -72 -1
-39 3 -77 9 -85 8 -8 8 -13 1 -13 -6 0 -11 -42 -11 -110 -1 -106 6 -131 27
-94 8 15 10 15 15 0 4 -9 14 -16 24 -16 15 0 16 -2 3 -10 -8 -5 -27 -10 -42
-10 -28 0 -28 -1 -28 -66 l0 -66 45 4 c39 3 44 1 39 -14 -4 -12 0 -18 11 -18
21 0 31 30 14 41 -28 18 1 8 43 -13 l43 -23 -30 -3 c-16 -2 -34 -9 -40 -16
-14 -16 -57 -15 -71 2 -16 22 -49 11 -51 -18 -1 -14 0 -19 3 -12 7 14 34 17
34 3 0 -5 -9 -13 -20 -16 -11 -3 -20 -13 -20 -21 0 -20 8 -18 46 11 24 19 40
24 59 19 14 -3 25 -11 25 -16 0 -6 -10 -8 -22 -5 -42 11 -59 -33 -21 -56 9 -5
10 -14 4 -25 -9 -19 -4 -42 9 -42 5 0 10 8 12 17 2 10 12 18 23 18 17 0 20 6
17 40 -2 30 0 36 7 25 8 -12 11 -8 11 18 0 24 -4 32 -17 32 -15 0 -16 2 -3 10
8 5 26 9 40 9 14 0 20 -3 13 -5 -8 -4 -10 -16 -7 -33 4 -19 0 -33 -11 -45 -12
-12 -16 -28 -13 -56 2 -22 1 -40 -3 -40 -4 0 -9 -9 -12 -20 -6 -22 -36 -27
-55 -8 -14 14 -17 11 -26 -22 -5 -17 -4 -21 2 -11 5 7 15 10 21 7 16 -10 14
-26 -4 -26 -8 0 -15 -4 -15 -10 0 -5 7 -10 16 -10 11 0 14 -5 10 -16 -5 -12 0
-15 21 -12 32 4 44 28 14 28 -28 0 -27 20 2 21 12 0 16 3 10 6 -17 6 0 39 28
53 16 9 26 8 44 -4 27 -18 35 -12 35 26 0 27 1 28 16 13 11 -10 20 -13 26 -7
11 11 48 4 48 -8 0 -4 16 -15 35 -24 19 -9 35 -23 35 -30 0 -15 45 -67 57 -65
4 1 10 0 13 -1 7 -2 62 -10 82 -11 10 0 21 -5 24 -11 4 -7 -7 -8 -35 -3 -27 4
-41 3 -41 -4 0 -6 -4 -11 -10 -11 -5 0 -9 5 -7 11 1 6 -4 14 -10 16 -7 3 -13
-2 -13 -11 0 -18 -15 -21 -25 -6 -12 19 -33 11 -28 -10 4 -15 11 -19 24 -15
11 4 19 2 19 -5 0 -6 4 -8 10 -5 6 4 10 -6 10 -22 0 -16 -4 -23 -8 -17 -5 9
-11 8 -20 -2 -7 -8 -8 -14 -2 -14 5 0 10 -4 10 -10 0 -5 -7 -10 -15 -10 -8 0
-22 -17 -32 -37 -10 -22 -19 -32 -21 -23 -2 12 -13 15 -42 12 -35 -4 -38 -6
-28 -22 9 -14 8 -21 -5 -34 -11 -11 -14 -28 -11 -54 4 -32 3 -34 -6 -14 -11
26 -33 25 -38 -1 -2 -11 3 -17 13 -17 12 0 15 -5 11 -16 -3 -9 -6 -20 -6 -25
0 -5 -5 -9 -11 -9 -6 0 -9 9 -6 20 7 26 -9 26 -23 1 -14 -27 -13 -41 5 -41 8
0 15 -4 15 -10 0 -5 -4 -10 -8 -10 -15 0 -42 36 -42 55 0 16 -2 17 -18 3 -9
-9 -28 -19 -42 -22 -22 -6 -23 -5 -9 6 21 17 14 78 -8 78 -11 0 -13 -7 -9 -23
5 -21 2 -24 -25 -24 -27 0 -30 3 -24 26 3 13 14 31 23 38 15 11 12 12 -20 13
-21 0 -38 -5 -38 -11 0 -6 7 -9 15 -5 19 7 19 -14 1 -59 -9 -21 -24 -37 -38
-40 -22 -6 -23 -10 -25 -118 l-2 -112 19 40 c14 32 19 37 25 23 4 -10 4 -25 1
-33 -4 -11 3 -19 19 -25 14 -5 25 -14 25 -19 0 -6 -6 -8 -14 -5 -21 8 -59 -15
-52 -32 3 -8 -1 -14 -8 -14 -11 0 -14 -17 -13 -69 l1 -69 45 30 c59 40 61 42
31 33 -14 -4 -21 -4 -17 1 4 4 18 8 30 9 23 1 96 42 154 88 20 15 40 27 45 27
6 0 8 6 5 14 -3 8 1 20 9 26 9 8 14 9 14 2 0 -6 -6 -13 -13 -15 -6 -3 -7 -6
-1 -6 6 -1 31 13 57 30 46 30 53 53 19 62 -15 4 -15 5 1 6 9 0 17 6 17 12 0 5
10 3 22 -5 28 -20 33 -20 51 -1 8 8 36 26 61 39 42 22 96 74 96 91 0 4 -11 0
-25 -9 -14 -9 -25 -13 -25 -8 0 11 44 34 68 36 24 1 184 155 175 169 -3 6 -1
7 5 3 6 -4 51 32 103 81 50 49 113 108 139 133 128 121 163 157 178 182 9 16
20 28 24 28 4 0 22 21 39 48 18 26 35 49 39 52 3 3 36 43 73 90 85 107 76 95
132 169 26 34 60 72 76 83 16 12 29 28 29 35 0 8 19 42 43 75 23 34 55 84 70
111 65 114 127 193 127 160 0 -8 -70 -124 -79 -133 -9 -8 -76 -111 -106 -162
-23 -41 -25 -52 -17 -80 26 -85 26 -88 -13 -88 -19 0 -35 2 -35 4 0 2 7 22 15
45 20 56 -3 56 -42 0 -15 -23 -51 -69 -78 -103 -28 -33 -73 -90 -100 -126 -56
-73 -59 -77 -110 -140 -81 -98 -109 -150 -94 -175 4 -5 9 -22 13 -37 6 -25 4
-28 -19 -28 -14 0 -28 1 -32 3 -11 3 -4 50 9 58 6 4 7 12 3 18 -4 8 -21 -3
-48 -30 -23 -23 -43 -46 -43 -50 -1 -5 -2 -14 -3 -20 0 -5 -6 -7 -11 -4 -10 6
-29 -11 -289 -261 -75 -72 -152 -145 -171 -163 -26 -24 -29 -29 -11 -21 15 8
26 9 33 2 15 -15 0 -32 -29 -32 -21 0 -24 -2 -13 -15 10 -12 10 -15 0 -15 -10
0 -10 -3 -1 -14 7 -8 11 -27 9 -43 -3 -24 -8 -28 -33 -28 -29 0 -30 1 -27 40
2 22 9 46 15 54 31 37 -48 -7 -253 -144 -130 -87 -217 -151 -214 -157 4 -7 2
-8 -4 -4 -7 4 -37 -10 -67 -31 l-55 -38 0 -296 c0 -266 2 -298 16 -303 9 -4
24 0 33 7 34 28 92 56 106 51 8 -4 15 -1 15 4 0 6 17 14 38 18 20 4 47 13 59
21 12 8 27 13 35 12 26 -3 39 1 33 11 -3 6 3 10 14 10 11 0 22 4 25 9 3 5 20
8 38 6 24 -2 34 -8 36 -23 3 -22 42 -38 53 -21 7 12 72 7 109 -8 18 -8 27 -7
32 1 6 8 8 7 8 -1 0 -7 11 -13 24 -13 14 0 27 -4 30 -9 3 -5 18 -12 33 -16 15
-3 31 -11 34 -17 4 -6 29 -11 57 -12 28 -1 48 -5 46 -11 -3 -6 13 -15 33 -22
22 -7 39 -8 41 -2 4 10 21 -7 38 -36 6 -11 22 -22 35 -23 25 -4 59 -33 59 -51
0 -6 8 -7 17 -4 12 5 15 2 10 -10 -5 -13 -1 -17 16 -17 24 -1 81 -29 59 -30
-20 0 12 -30 32 -30 8 0 20 -9 26 -20 13 -25 27 -26 33 -2 4 13 5 12 6 -4 1
-23 25 -38 54 -35 9 1 17 -4 17 -11 0 -7 16 -26 36 -43 116 -98 204 -209 244
-307 18 -45 21 -60 11 -71 -8 -10 -9 -22 -1 -41 14 -38 30 -32 26 10 -1 19 1
37 6 40 4 3 8 -1 8 -9 0 -8 6 -17 14 -20 8 -3 19 -23 26 -44 6 -21 18 -52 26
-69 8 -19 11 -45 8 -63 -6 -26 -3 -31 13 -31 24 0 43 -38 32 -65 -13 -33 -10
-45 10 -45 22 0 32 -23 33 -72 1 -18 8 -38 16 -44 9 -7 15 -27 14 -55 0 -24 7
-59 15 -78 14 -32 14 -35 -2 -47 -20 -15 -14 -44 9 -44 8 0 17 -9 21 -20 7
-24 -22 -89 -44 -98 -11 -5 -7 -8 14 -12 21 -3 31 -12 33 -26 4 -25 -26 -41
-34 -19 -4 8 -14 15 -23 15 -13 0 -17 -9 -17 -35 0 -19 -4 -38 -8 -42 -14 -14
-38 30 -31 57 9 35 9 42 1 164 -5 81 -3 112 6 117 9 6 9 11 -1 23 -8 10 -11
29 -6 54 5 29 2 42 -10 52 -8 7 -18 10 -22 6 -10 -9 -43 45 -43 71 0 16 5 20
20 16 11 -3 20 -1 20 5 0 5 -14 12 -30 16 -31 6 -36 20 -32 85 1 13 -7 31 -17
40 -32 28 -43 57 -26 71 18 15 8 42 -14 36 -9 -3 -21 -2 -27 2 -18 12 -53 87
-60 131 -5 34 -23 57 -110 148 -129 135 -134 141 -134 153 0 6 -7 10 -16 10
-10 0 -14 6 -10 15 3 8 2 15 -2 15 -4 0 -20 12 -35 26 -15 14 -35 23 -43 20
-7 -3 -14 0 -14 7 0 16 -36 47 -55 47 -8 0 -15 6 -15 14 0 17 -47 49 -60 41
-6 -4 -7 1 -3 11 4 12 2 15 -8 12 -7 -2 -18 -1 -24 4 -87 70 -111 87 -131 91
-14 2 -24 -1 -25 -7 0 -6 -5 0 -10 13 -7 18 -12 21 -23 12 -11 -9 -15 -7 -19
9 -3 11 -12 20 -21 20 -9 0 -33 9 -53 20 -21 11 -43 20 -50 20 -7 0 -13 4 -13
10 0 5 -7 7 -15 4 -8 -4 -21 -2 -28 4 -18 14 -161 35 -165 24 -2 -6 -13 -8
-25 -6 -17 3 -16 1 5 -8 14 -6 29 -20 31 -30 3 -10 12 -18 21 -18 9 0 16 -8
16 -19 0 -29 -15 -33 -35 -11 -19 21 -45 27 -45 10 0 -15 -27 -12 -33 3 -6 16
-87 10 -87 -6 0 -6 -7 -2 -15 11 -13 18 -19 20 -34 10 -11 -7 -17 -18 -13 -27
4 -10 1 -13 -11 -8 -8 3 -17 3 -19 -1 -5 -11 -82 -72 -90 -72 -5 0 -8 11 -8
25 0 14 -4 25 -10 25 -5 0 -10 -13 -10 -29 0 -21 -9 -36 -34 -55 -19 -14 -38
-35 -41 -46 -8 -25 -32 -26 -38 -2 -3 9 -5 -2 -6 -25 0 -23 4 -45 9 -48 8 -5
8 -11 0 -20 -16 -20 -13 -1054 3 -1061 9 -3 12 -22 11 -59 -2 -52 -1 -54 27
-60 26 -6 29 -10 29 -49 0 -32 6 -47 24 -63 19 -17 24 -31 25 -79 0 -33 6 -61
11 -62 16 -6 30 -39 24 -56 -3 -9 -10 -13 -15 -10 -5 3 -9 -6 -9 -20 0 -14 5
-28 10 -31 14 -9 12 -25 -3 -25 -7 0 -14 -14 -15 -32 -4 -68 -15 -114 -30
-130 -14 -16 -14 -18 1 -18 8 0 17 -5 19 -11 3 -9 10 -9 26 0 20 11 22 10 22
-18 0 -34 -39 -71 -76 -71 -17 0 -24 -6 -24 -20 0 -22 -42 -50 -48 -31 -2 6
-8 11 -13 11 -5 0 -9 -97 -9 -230 l0 -230 25 0 c14 0 25 -4 25 -10 0 -5 -11
-10 -25 -10 l-25 0 0 -530 0 -530 24 0 c14 0 28 5 31 10 3 6 13 10 21 10 8 0
13 -4 9 -9 -7 -12 31 -25 45 -16 6 4 7 11 4 17 -4 6 3 5 16 -2 12 -6 24 -9 28
-6 3 3 0 6 -6 6 -7 0 -12 5 -12 10 0 6 7 10 15 10 8 0 15 -6 15 -14 0 -10 13
-13 55 -10 31 2 61 6 67 10 7 4 8 3 4 -4 -5 -9 17 -12 81 -12 48 1 311 1 583
1 272 1 545 3 605 5 61 3 182 4 271 4 135 -1 162 1 173 14 17 20 32 21 25 1
-8 -21 62 -21 82 0 17 17 60 20 69 6 3 -5 -9 -12 -27 -14 -24 -3 -19 -4 17 -5
34 -1 45 1 35 8 -8 5 -12 11 -10 13 11 10 100 24 100 16 0 -5 9 -9 21 -9 11 0
29 -5 40 -11 14 -7 24 -7 33 0 19 16 108 10 101 -7 -4 -11 9 -13 67 -9 40 3
159 4 263 4 339 -3 349 -2 373 19 l22 18 0 618 c0 340 -3 618 -6 618 -3 0 -29
-20 -57 -44 -163 -138 -320 -199 -512 -198 -95 0 -122 4 -197 30 -116 39 -187
83 -261 162 -88 92 -157 247 -157 349 0 37 -2 37 -46 10 -19 -11 -40 -19 -47
-16 -6 2 6 13 29 25 54 27 62 38 70 100 8 59 14 56 -93 52 -47 -1 -64 2 -68
13 -5 11 -15 12 -48 6 -63 -12 -67 -11 -67 16 0 14 -5 25 -12 25 -9 0 -9 3 0
12 7 7 12 26 12 43 0 47 11 75 28 75 11 0 13 3 6 10 -5 5 -8 26 -6 45 4 33 6
35 43 35 28 0 39 4 39 15 0 8 7 15 15 15 13 0 13 -4 3 -22 -7 -13 -20 -31 -28
-41 -11 -15 -12 -22 -2 -37 18 -30 15 -67 -7 -73 -10 -2 -24 -14 -30 -26 -11
-20 -10 -20 14 -9 21 9 28 9 35 -2 10 -16 32 23 49 88 7 24 19 46 27 49 9 3
54 0 102 -6 l87 -13 85 85 c145 144 304 207 520 207 143 1 203 -9 333 -55 56
-20 111 -39 122 -42 11 -4 -13 28 -57 75 -183 196 -268 387 -268 606 0 59 7
127 15 161 15 60 79 200 111 243 15 20 15 22 1 22 -9 0 -18 -4 -21 -9 -3 -5
-43 -19 -88 -31 -377 -103 -741 148 -741 510 -1 158 60 298 183 420 120 121
260 180 463 198 l88 7 25 70 c14 39 27 78 30 87 4 10 -3 32 -14 50 -79 129
-118 237 -132 360 -16 138 17 305 85 426 14 25 24 47 22 48 -2 2 -46 -6 -98
-17 -313 -69 -627 119 -700 421 -21 90 -15 232 15 325 14 43 24 80 23 82 -6 5
-1229 50 -1892 68 -104 3 -207 8 -227 11 -29 3 -38 1 -38 -11z m813 -52 c-7
-2 -19 -2 -25 0 -7 3 -2 5 12 5 14 0 19 -2 13 -5z m-48 -23 c3 -6 -4 -10 -17
-10 -18 0 -20 2 -8 10 19 12 18 12 25 0z m-252 -17 c-7 -2 -19 -2 -25 0 -7 3
-2 5 12 5 14 0 19 -2 13 -5z m537 -3 c0 -5 -5 -10 -11 -10 -5 0 -7 5 -4 10 3
6 8 10 11 10 2 0 4 -4 4 -10z m-768 -62 c-7 -7 -12 -8 -12 -2 0 14 12 26 19
19 2 -3 -1 -11 -7 -17z m58 -1 c11 -5 9 -6 -4 -4 -11 1 -21 9 -23 17 -3 10 -2
11 4 4 4 -6 15 -14 23 -17z m-93 2 c6 -6 9 -17 6 -24 -3 -8 4 -15 18 -17 22
-3 21 -3 -5 -18 -25 -13 -29 -13 -41 3 -7 9 -21 17 -31 17 -16 0 -17 -2 -4
-11 12 -9 12 -10 -3 -5 -10 3 -26 6 -35 6 -15 0 -15 2 -2 10 8 5 32 10 53 10
20 0 37 5 37 10 0 6 -12 10 -26 10 -14 0 -23 4 -19 10 8 13 38 13 52 -1z m433
1 c0 -5 -2 -10 -4 -10 -3 0 -8 5 -11 10 -3 6 -1 10 4 10 6 0 11 -4 11 -10z
m295 0 c3 -5 1 -10 -4 -10 -6 0 -11 5 -11 10 0 6 2 10 4 10 3 0 8 -4 11 -10z
m785 -20 c0 -5 -7 -10 -15 -10 -8 0 -15 5 -15 10 0 6 7 10 15 10 8 0 15 -4 15
-10z m-1480 -91 c0 -5 -4 -9 -10 -9 -5 0 -10 7 -10 16 0 8 5 12 10 9 6 -3 10
-10 10 -16z m-143 -15 c2 0 -11 -1 -27 -1 -30 0 -40 12 -17 20 6 2 19 -1 27
-7 8 -5 16 -11 17 -12z m-77 -14 c0 -5 -2 -10 -4 -10 -3 0 -8 5 -11 10 -3 6
-1 10 4 10 6 0 11 -4 11 -10z m160 -20 c0 -5 -4 -10 -10 -10 -5 0 -10 5 -10
10 0 6 5 10 10 10 6 0 10 -4 10 -10z m-90 -20 c0 -5 -7 -10 -15 -10 -8 0 -15
5 -15 10 0 6 7 10 15 10 8 0 15 -4 15 -10z m-20 -126 c0 -8 -4 -12 -10 -9 -5
3 -10 10 -10 16 0 5 5 9 10 9 6 0 10 -7 10 -16z m-60 -28 c0 -3 -4 -8 -10 -11
-5 -3 -10 -1 -10 4 0 6 5 11 10 11 6 0 10 -2 10 -4z m63 -37 c18 -1 19 -2 4
-6 -29 -7 -48 4 -40 24 7 17 8 17 11 1 2 -10 13 -19 25 -19z m57 10 c0 -6 -4
-7 -10 -4 -5 3 -10 11 -10 16 0 6 5 7 10 4 6 -3 10 -11 10 -16z m-110 -19 c0
-5 -4 -10 -9 -10 -6 0 -13 5 -16 10 -3 6 1 10 9 10 9 0 16 -4 16 -10z m-16
-39 c4 -5 -3 -7 -14 -4 -23 6 -26 13 -6 13 8 0 17 -4 20 -9z m176 -21 c0 -5
-4 -10 -10 -10 -5 0 -10 5 -10 10 0 6 5 10 10 10 6 0 10 -4 10 -10z m-140 -90
c0 -5 -6 -10 -14 -10 -8 0 -18 5 -21 10 -3 6 3 10 14 10 12 0 21 -4 21 -10z
m83 -20 c-5 -19 -23 -29 -23 -12 0 7 20 32 26 32 1 0 0 -9 -3 -20z m1693 -48
c-9 -9 -37 8 -31 18 5 8 11 7 21 -1 8 -6 12 -14 10 -17z m-1616 -32 c0 -6 -11
-8 -27 -4 -40 10 -41 14 -5 14 18 0 32 -5 32 -10z m-26 -142 c-5 -13 -7 -35
-6 -50 0 -16 -3 -28 -8 -28 -11 0 -13 59 -4 84 10 25 26 19 18 -6z m81 2 c3
-6 -1 -7 -9 -4 -18 7 -21 14 -7 14 6 0 13 -4 16 -10z m795 6 c0 -3 -4 -8 -10
-11 -5 -3 -10 -1 -10 4 0 6 5 11 10 11 6 0 10 -2 10 -4z m-840 -22 c0 -8 -4
-12 -10 -9 -5 3 -10 10 -10 16 0 5 5 9 10 9 6 0 10 -7 10 -16z m-10 -59 c0 -8
-4 -15 -10 -15 -5 0 -7 7 -4 15 4 8 8 15 10 15 2 0 4 -7 4 -15z m224 -30 c4
-16 11 -22 21 -19 8 4 15 1 15 -5 0 -6 -4 -11 -10 -11 -5 0 -10 -7 -10 -16 0
-11 -5 -14 -16 -10 -9 3 -18 6 -20 6 -2 0 -4 18 -4 40 0 44 14 54 24 15z
m1436 -3 c0 -14 -77 -35 -97 -27 -14 6 -9 10 27 20 56 16 70 17 70 7z m-30
-52 c0 -11 -4 -20 -9 -20 -11 0 -22 26 -14 34 12 12 23 5 23 -14z m-1360 -9
c0 -5 -7 -12 -16 -15 -14 -5 -15 -4 -4 9 14 17 20 19 20 6z m50 -1 c0 -5 -4
-10 -10 -10 -5 0 -10 5 -10 10 0 6 5 10 10 10 6 0 10 -4 10 -10z m100 0 c0 -5
-4 -10 -10 -10 -5 0 -10 5 -10 10 0 6 5 10 10 10 6 0 10 -4 10 -10z m10 -49
c0 -11 6 -21 13 -24 6 -2 9 -7 5 -11 -8 -10 -48 25 -48 41 0 7 7 13 15 13 8 0
15 -9 15 -19z m240 9 c0 -5 -7 -10 -15 -10 -8 0 -15 5 -15 10 0 6 7 10 15 10
8 0 15 -4 15 -10z m-180 -20 c0 -5 -7 -10 -16 -10 -8 0 -12 5 -9 10 3 6 10 10
16 10 5 0 9 -4 9 -10z m-129 -59 c7 -18 6 -22 -9 -19 -9 2 -19 14 -20 27 -5
30 18 24 29 -8z m279 9 c0 -5 -9 -10 -20 -10 -11 0 -20 5 -20 10 0 6 9 10 20
10 11 0 20 -4 20 -10z m-344 -37 c-10 -10 -19 5 -10 18 6 11 8 11 12 0 2 -7 1
-15 -2 -18z m184 17 c0 -5 -2 -10 -4 -10 -3 0 -8 5 -11 10 -3 6 -1 10 4 10 6
0 11 -4 11 -10z m-60 -14 c0 -3 -4 -8 -10 -11 -5 -3 -10 -1 -10 4 0 6 5 11 10
11 6 0 10 -2 10 -4z m-60 -46 c0 -5 -4 -10 -10 -10 -5 0 -10 5 -10 10 0 6 5
10 10 10 6 0 10 -4 10 -10z m25 -30 c3 -5 0 -10 -8 -10 -10 0 -13 -7 -10 -20
3 -11 9 -20 14 -20 13 0 11 -24 -6 -56 l-14 -28 -11 30 c-6 16 -17 41 -25 57
-7 15 -10 27 -5 27 5 0 10 -6 13 -12 2 -8 10 -1 17 15 14 28 25 34 35 17z
m-95 -10 c-8 -5 -11 -10 -5 -10 5 0 4 -5 -2 -11 -6 -6 -16 -8 -22 -5 -14 9 8
35 29 35 13 1 13 0 0 -9z m-66 -16 c9 -22 8 -24 -9 -24 -8 0 -15 9 -15 20 0
24 15 27 24 4z m206 -36 c0 -15 -28 -8 -34 8 -11 28 -6 34 14 17 11 -10 20
-21 20 -25z m495 32 c3 -5 1 -10 -4 -10 -6 0 -11 5 -11 10 0 6 2 10 4 10 3 0
8 -4 11 -10z m-722 -49 c4 -16 -2 -20 -35 -25 -42 -7 -68 5 -68 30 0 9 11 14
30 14 17 0 30 5 30 10 0 18 37 -7 43 -29z m77 9 c0 -5 -4 -10 -10 -10 -5 0
-10 5 -10 10 0 6 5 10 10 10 6 0 10 -4 10 -10z m148 -27 c-10 -2 -18 -12 -18
-20 0 -9 -3 -14 -6 -10 -12 11 5 37 23 36 17 -1 17 -2 1 -6z m-294 -39 c4 -10
13 -13 25 -9 10 3 24 -1 31 -10 11 -13 9 -19 -9 -36 l-22 -20 7 28 c6 27 6 27
-9 8 -13 -16 -18 -18 -28 -7 -7 6 -9 12 -4 12 5 0 1 6 -10 13 -10 8 -15 19
-11 25 10 17 23 15 30 -4z m126 -22 c0 -5 -7 -9 -15 -9 -8 0 -15 4 -15 9 0 4
7 8 15 8 8 0 15 -4 15 -8z m-150 -55 c11 -4 11 -6 -3 -6 -20 -1 -50 23 -40 33
3 3 11 0 17 -8 6 -8 18 -16 26 -19z m540 19 c0 -11 -19 -15 -25 -6 -3 5 1 10
9 10 9 0 16 -2 16 -4z m-426 -15 c7 -11 -3 -41 -13 -41 -4 0 -8 11 -9 25 -2
25 11 34 22 16z m-375 -20 c-21 -33 -48 -44 -66 -26 -20 20 -9 32 13 14 15
-12 19 -11 32 9 17 26 37 30 21 3z m459 12 c-10 -2 -26 -2 -35 0 -10 3 -2 5
17 5 19 0 27 -2 18 -5z m552 -3 c0 -5 -9 -10 -20 -10 -11 0 -20 5 -20 10 0 6
9 10 20 10 11 0 20 -4 20 -10z m-856 -24 c21 -10 23 -15 11 -19 -8 -4 -15 -2
-15 4 0 6 -7 9 -15 6 -15 -7 -29 6 -18 17 8 8 6 8 37 -8z m66 4 c0 -5 -4 -10
-10 -10 -5 0 -10 5 -10 10 0 6 5 10 10 10 6 0 10 -4 10 -10z m97 -6 c-3 -3
-12 -4 -19 -1 -8 3 -5 6 6 6 11 1 17 -2 13 -5z m-297 -23 c0 -11 5 -21 11 -23
6 -2 10 -13 7 -23 -3 -17 -7 -14 -21 14 -19 39 -21 51 -7 51 6 0 10 -9 10 -19z
m414 -4 c-18 -14 -29 -16 -36 -9 -16 16 -2 29 31 29 l29 0 -24 -20z m1086 -41
c0 -15 -37 -42 -47 -33 -2 3 0 15 6 26 7 11 8 33 5 48 l-7 28 22 -27 c11 -14
21 -33 21 -42z m-385 44 c3 -5 1 -10 -4 -10 -6 0 -11 5 -11 10 0 6 2 10 4 10
3 0 8 -4 11 -10z m40 0 c3 -5 -1 -10 -10 -10 -9 0 -13 5 -10 10 3 6 8 10 10
10 2 0 7 -4 10 -10z m-892 -7 c-7 -2 -19 -2 -25 0 -7 3 -2 5 12 5 14 0 19 -2
13 -5z m-284 -45 c1 -5 -3 -8 -9 -8 -5 0 -10 12 -9 28 0 24 1 25 9 7 5 -11 9
-23 9 -27z m1461 28 c0 -7 -7 -19 -15 -26 -16 -13 -20 -3 -9 24 8 20 24 21 24
2z m-1305 -16 c-5 -16 -2 -20 15 -20 12 0 30 5 41 10 10 6 19 7 19 2 0 -4 -16
-14 -36 -21 -19 -7 -38 -19 -40 -26 -3 -8 -12 -11 -20 -8 -8 3 -12 9 -9 13 3
4 -2 10 -10 14 -8 3 -15 10 -15 15 0 6 7 8 15 5 9 -4 15 0 15 9 0 13 10 22 28
26 2 1 0 -8 -3 -19z m565 10 c0 -5 -5 -10 -11 -10 -5 0 -7 5 -4 10 3 6 8 10
11 10 2 0 4 -4 4 -10z m880 -5 c0 -8 -2 -15 -4 -15 -2 0 -6 7 -10 15 -3 8 -1
15 4 15 6 0 10 -7 10 -15z m-1640 -15 c0 -5 -7 -10 -16 -10 -8 0 -12 5 -9 10
3 6 10 10 16 10 5 0 9 -4 9 -10z m1105 0 c3 -5 1 -10 -4 -10 -6 0 -11 5 -11
10 0 6 2 10 4 10 3 0 8 -4 11 -10z m52 -33 c1 -29 1 -30 -8 -9 -5 13 -7 28 -3
33 8 14 9 12 11 -24z m-850 7 c-3 -3 -12 -4 -19 -1 -8 3 -5 6 6 6 11 1 17 -2
13 -5z m1163 -4 c0 -5 -10 -10 -22 -10 -19 0 -20 2 -8 10 19 13 30 13 30 0z
m-1195 -11 c11 -16 1 -19 -13 -3 -7 8 -8 14 -3 14 5 0 13 -5 16 -11z m65 5 c0
-9 -32 -33 -44 -34 -5 0 -1 9 10 19 19 20 34 26 34 15z m-190 -9 c0 -2 -9 -9
-20 -15 -16 -9 -20 -8 -20 5 0 8 9 15 20 15 11 0 20 -2 20 -5z m87 -21 c-3 -3
-12 -4 -19 -1 -8 3 -5 6 6 6 11 1 17 -2 13 -5z m1213 -33 c0 -6 -9 -9 -19 -8
-11 0 -17 5 -15 9 7 11 34 10 34 -1z m-1230 -15 c0 -3 -4 -8 -10 -11 -5 -3
-10 -1 -10 4 0 6 5 11 10 11 6 0 10 -2 10 -4z m1320 -6 c12 -8 11 -10 -7 -10
-13 0 -23 -6 -23 -14 0 -8 10 -17 23 -19 16 -3 14 -5 -10 -6 -38 -1 -48 11
-31 39 14 22 25 25 48 10z m-112 -23 c10 -9 25 -17 32 -17 11 0 10 -4 -3 -17
-15 -15 -19 -16 -26 -4 -6 8 -17 11 -32 6 -17 -4 -20 -3 -10 3 9 7 10 12 2 16
-16 10 -13 35 4 32 8 -1 22 -10 33 -19z m-411 -3 c-3 -3 -12 -4 -19 -1 -8 3
-5 6 6 6 11 1 17 -2 13 -5z m-1000 -20 c-3 -3 -12 -4 -19 -1 -8 3 -5 6 6 6 11
1 17 -2 13 -5z m55 -27 c15 -12 15 -14 -2 -25 -16 -10 -18 -9 -14 3 4 10 0 15
-16 15 -11 0 -18 5 -15 10 8 13 26 12 47 -3z m-79 -64 c9 -8 -12 -33 -27 -33
-6 0 -3 5 8 11 15 9 16 13 5 20 -8 5 -9 9 -3 9 6 0 14 -3 17 -7z m387 -43 c0
-5 -2 -10 -4 -10 -3 0 -8 5 -11 10 -3 6 -1 10 4 10 6 0 11 -4 11 -10z m1370 0
c0 -5 -4 -10 -9 -10 -6 0 -13 5 -16 10 -3 6 1 10 9 10 9 0 16 -4 16 -10z
m-1530 -30 c0 -5 -7 -10 -16 -10 -8 0 -12 5 -9 10 3 6 10 10 16 10 5 0 9 -4 9
-10z m-103 -62 c-3 -8 -6 -5 -6 6 -1 11 2 17 5 13 3 -3 4 -12 1 -19z m1193 12
c0 -5 -4 -10 -10 -10 -5 0 -10 5 -10 10 0 6 5 10 10 10 6 0 10 -4 10 -10z
m-1227 -90 c3 -11 1 -20 -4 -20 -5 0 -9 9 -9 20 0 11 2 20 4 20 2 0 6 -9 9
-20z m1971 -25 c46 -19 49 -40 4 -30 -18 4 -45 7 -60 7 -30 -1 -35 7 -16 26
16 16 28 15 72 -3z m-2074 -15 c0 -5 -5 -10 -11 -10 -5 0 -7 5 -4 10 3 6 8 10
11 10 2 0 4 -4 4 -10z m115 0 c3 -5 -1 -10 -9 -10 -9 0 -16 5 -16 10 0 6 4 10
9 10 6 0 13 -4 16 -10z m1935 -41 c0 -15 -70 -39 -103 -35 -28 3 -53 26 -28
26 6 0 11 7 11 15 0 26 29 33 76 17 24 -8 44 -18 44 -23z m-1545 -19 c3 -5 2
-10 -4 -10 -5 0 -13 5 -16 10 -3 6 -2 10 4 10 5 0 13 -4 16 -10z m-308 -6 c-3
-3 -12 -4 -19 -1 -8 3 -5 6 6 6 11 1 17 -2 13 -5z m-110 -30 c8 -22 -15 -43
-27 -24 -8 12 -10 13 -10 1 0 -8 -3 -12 -6 -9 -7 7 18 48 29 48 4 0 10 -7 14
-16z m-87 -4 c0 -5 -5 -10 -11 -10 -5 0 -7 5 -4 10 3 6 8 10 11 10 2 0 4 -4 4
-10z m178 -18 c2 -7 -3 -12 -12 -12 -9 0 -16 7 -16 16 0 17 22 14 28 -4z m35
-31 c-4 -16 -8 -17 -18 -8 -10 10 -10 13 4 19 9 4 17 7 18 7 0 1 -1 -8 -4 -18z
m-143 -21 c0 -5 -4 -10 -10 -10 -5 0 -10 5 -10 10 0 6 5 10 10 10 6 0 10 -4
10 -10z m1717 -6 c-3 -3 -12 -4 -19 -1 -8 3 -5 6 6 6 11 1 17 -2 13 -5z m-644
-77 c-3 -5 -10 -4 -15 1 -6 6 -7 16 -3 22 6 9 9 9 16 -1 4 -7 5 -17 2 -22z
m-953 -31 c0 -8 -6 -16 -14 -19 -10 -4 -12 0 -9 14 6 22 23 26 23 5z m71 -6
c5 0 9 -7 9 -15 0 -8 -9 -15 -21 -15 -11 0 -17 5 -14 10 3 6 1 10 -4 10 -6 0
-11 5 -11 11 0 6 7 8 16 5 9 -3 20 -6 25 -6z m-124 -28 c-16 -15 -47 -10 -47
7 0 11 30 19 48 13 11 -4 11 -8 -1 -20z m-57 -47 c0 -8 -4 -15 -8 -15 -5 0 -9
7 -9 15 0 8 4 15 9 15 4 0 8 -7 8 -15z m415 -16 c11 -16 1 -19 -13 -3 -7 8 -8
14 -3 14 5 0 13 -5 16 -11z m330 -9 c3 -5 -1 -10 -10 -10 -9 0 -13 5 -10 10 3
6 8 10 10 10 2 0 7 -4 10 -10z m-495 -204 c0 -3 -4 -8 -10 -11 -5 -3 -10 -1
-10 4 0 6 5 11 10 11 6 0 10 -2 10 -4z m30 -16 c0 -5 -4 -10 -10 -10 -5 0 -10
5 -10 10 0 6 5 10 10 10 6 0 10 -4 10 -10z m-350 -59 c0 -5 -7 -11 -15 -15
-15 -5 -20 5 -8 17 9 10 23 9 23 -2z m50 -22 c0 -6 -4 -7 -10 -4 -5 3 -10 11
-10 16 0 6 5 7 10 4 6 -3 10 -11 10 -16z m100 -19 c0 -5 -2 -10 -4 -10 -3 0
-8 5 -11 10 -3 6 -1 10 4 10 6 0 11 -4 11 -10z m138 -7 c-10 -2 -26 -2 -35 0
-10 3 -2 5 17 5 19 0 27 -2 18 -5z m792 -112 c0 -11 -26 -22 -34 -14 -12 12
-5 23 14 23 11 0 20 -4 20 -9z m-950 -96 c0 -13 -4 -14 -20 -5 -11 6 -20 13
-20 15 0 3 9 5 20 5 11 0 20 -7 20 -15z m1030 -195 c0 -5 -2 -10 -4 -10 -3 0
-8 5 -11 10 -3 6 -1 10 4 10 6 0 11 -4 11 -10z m-15 -110 c-3 -5 -10 -10 -16
-10 -5 0 -9 5 -9 10 0 6 7 10 16 10 8 0 12 -4 9 -10z m613 -397 c-4 -22 -22
-20 -26 1 -2 10 3 16 13 16 10 0 15 -7 13 -17z m442 -283 c0 -5 -7 -10 -15
-10 -8 0 -15 5 -15 10 0 6 7 10 15 10 8 0 15 -4 15 -10z m-857 -875 c1 -6 -10
-11 -25 -13 -31 -4 -39 14 -10 21 23 6 33 4 35 -8z m62 5 c-3 -5 -15 -10 -26
-10 -10 0 -19 5 -19 10 0 6 12 10 26 10 14 0 23 -4 19 -10z m-145 -40 c0 -5
-9 -10 -21 -10 -11 0 -17 5 -14 10 3 6 13 10 21 10 8 0 14 -4 14 -10z m-30
-44 c39 4 66 -8 56 -25 -4 -6 -20 -11 -36 -11 -16 0 -31 -4 -35 -9 -3 -5 -30
-17 -59 -25 -62 -18 -77 -20 -56 -6 9 6 10 10 3 10 -6 0 -15 -4 -18 -10 -3 -5
-14 -10 -23 -10 -15 0 -15 2 -2 11 12 8 12 10 -5 7 -11 -2 -21 -12 -23 -22 -4
-17 0 -18 37 -12 23 3 41 3 41 -1 0 -11 -131 -73 -152 -73 -9 0 -29 -5 -43
-12 -23 -10 -28 -10 -37 6 -8 14 -12 15 -24 5 -8 -7 -37 -11 -64 -10 -39 1
-48 -2 -44 -13 6 -15 -42 -54 -53 -43 -3 4 -18 0 -33 -8 -15 -8 -30 -12 -33
-9 -3 3 -38 6 -77 7 -39 0 -73 4 -76 9 -8 12 -62 10 -70 -3 -4 -7 -9 -8 -17 0
-5 5 -23 7 -39 4 -23 -4 -27 -3 -22 10 8 23 -28 39 -61 27 -45 -17 -93 -12
-105 10 -16 30 3 34 156 26 l134 -7 37 -37 c25 -25 38 -32 41 -23 3 8 -3 18
-12 23 -23 13 -3 38 30 38 13 0 24 4 24 10 0 5 23 12 50 16 28 4 53 11 56 15
7 12 58 11 70 -1 6 -6 26 -1 56 14 26 13 49 21 53 18 3 -3 15 4 28 15 23 21
83 47 145 62 20 5 60 18 87 29 41 15 53 17 65 6 8 -6 31 -10 50 -8z m440 -426
c0 -5 -4 -10 -10 -10 -5 0 -10 5 -10 10 0 6 5 10 10 10 6 0 10 -4 10 -10z
m1412 -652 c-8 -8 -9 -4 -5 13 4 13 8 18 11 10 2 -7 -1 -18 -6 -23z m-32 -97
c-19 -38 -37 -57 -45 -49 -6 5 49 88 58 88 4 0 -2 -18 -13 -39z m-805 -11 c3
-6 -5 -10 -19 -10 -14 0 -31 -9 -40 -22 -9 -12 -19 -18 -23 -14 -4 4 -1 11 7
16 8 6 11 10 5 10 -5 0 -1 7 9 15 23 17 52 20 61 5z m-167 -62 c-3 -7 -13 -15
-24 -17 -16 -3 -17 -1 -5 13 16 19 34 21 29 4z"/>
<path d="M596 6503 c-11 -11 -6 -23 9 -23 8 0 15 4 15 9 0 13 -16 22 -24 14z"/>
<path d="M490 6300 c0 -5 5 -10 10 -10 6 0 10 5 10 10 0 6 -4 10 -10 10 -5 0
-10 -4 -10 -10z"/>
<path d="M1592 6260 c0 -14 2 -19 5 -12 2 6 2 18 0 25 -3 6 -5 1 -5 -13z"/>
<path d="M992 2769 c2 -6 8 -10 13 -10 5 0 11 4 13 10 2 6 -4 11 -13 11 -9 0
-15 -5 -13 -11z"/>
<path d="M660 2705 c0 -8 2 -15 4 -15 2 0 6 7 10 15 3 8 1 15 -4 15 -6 0 -10
-7 -10 -15z"/>
<path d="M595 2660 c-3 -5 -2 -10 4 -10 5 0 13 5 16 10 3 6 2 10 -4 10 -5 0
-13 -4 -16 -10z"/>
<path d="M640 2650 c0 -5 5 -10 11 -10 5 0 7 5 4 10 -3 6 -8 10 -11 10 -2 0
-4 -4 -4 -10z"/>
<path d="M36 7825 c-3 -9 0 -15 9 -15 16 0 20 16 6 24 -5 3 -11 -1 -15 -9z"/>
<path d="M162 7800 c0 -14 2 -19 5 -12 2 6 2 18 0 25 -3 6 -5 1 -5 -13z"/>
<path d="M120 7770 c0 -5 5 -10 10 -10 6 0 10 5 10 10 0 6 -4 10 -10 10 -5 0
-10 -4 -10 -10z"/>
<path d="M100 7740 c0 -5 5 -10 11 -10 5 0 7 5 4 10 -3 6 -8 10 -11 10 -2 0
-4 -4 -4 -10z"/>
<path d="M6948 7733 c12 -2 30 -2 40 0 9 3 -1 5 -23 4 -22 0 -30 -2 -17 -4z"/>
<path d="M66 7714 c-9 -23 -8 -24 14 -24 23 0 26 13 6 29 -11 9 -15 8 -20 -5z"/>
<path d="M4675 7688 c22 -53 45 -182 45 -250 -1 -218 -123 -420 -307 -508 -58
-28 -72 -39 -67 -52 4 -13 0 -18 -15 -18 -15 0 -19 4 -14 17 5 14 1 15 -28 9
-77 -16 -163 -18 -235 -7 -41 7 -78 10 -81 8 -3 -3 2 -27 11 -54 27 -83 37
-154 37 -268 0 -75 -4 -120 -14 -140 -8 -16 -18 -42 -21 -57 -6 -25 -3 -28 18
-28 19 0 23 -4 19 -20 -7 -25 37 -65 50 -47 5 7 6 3 3 -9 -5 -14 3 -29 24 -50
16 -16 30 -34 30 -41 0 -6 4 -14 9 -17 4 -3 8 7 7 22 -1 16 -6 26 -13 25 -7
-2 -13 4 -13 12 0 8 6 15 13 15 8 0 7 4 -3 10 -9 6 -11 13 -5 18 6 4 15 16 21
26 14 27 34 32 34 8 0 -26 10 -34 26 -21 8 6 21 8 30 5 10 -4 14 -1 12 6 -3 7
-15 14 -27 16 -12 2 -25 10 -28 18 -7 19 -49 18 -57 -1 -3 -8 -10 -15 -17 -15
-6 0 -9 7 -6 15 4 8 2 17 -4 21 -6 3 -13 -3 -16 -15 -3 -11 -9 -19 -13 -16 -5
3 -12 0 -16 -6 -5 -8 -9 -8 -14 1 -7 12 21 50 38 50 4 0 12 11 19 25 9 21 9
25 -5 25 -12 0 -13 3 -5 11 21 21 40 3 36 -33 l-3 -33 11 28 c6 15 15 27 21
27 12 0 0 40 -20 63 -9 10 -11 17 -4 17 7 0 15 12 18 26 5 19 9 22 15 13 14
-23 22 -1 11 30 -9 25 -8 31 4 31 7 0 14 -7 14 -15 0 -17 16 -20 25 -5 3 5 13
6 21 3 10 -4 17 2 21 16 5 19 12 21 69 21 36 0 64 4 64 10 0 6 -18 10 -40 10
-22 0 -40 4 -40 10 0 6 18 7 46 3 29 -4 48 -2 53 5 7 12 71 -14 71 -29 0 -13
-34 -11 -50 4 -13 10 -13 10 -2 -3 20 -23 15 -26 -54 -28 -36 -1 -73 -7 -82
-12 -13 -8 -7 -9 22 -4 25 4 37 3 33 -3 -9 -14 86 -4 94 9 4 6 22 10 42 11
l36 1 -37 65 c-20 37 -49 86 -64 110 -38 60 -36 86 2 42 16 -19 36 -48 45 -65
23 -48 53 -79 70 -72 9 3 19 -3 25 -14 12 -23 36 -17 43 12 4 14 11 19 23 14
9 -3 22 -3 28 2 6 4 24 14 40 20 24 11 28 10 23 -1 -6 -15 46 -60 57 -50 11
11 6 23 -9 23 -18 0 -19 12 -3 28 9 9 7 13 -5 18 -21 8 -12 24 12 24 11 0 21
10 25 22 4 18 8 20 18 10 18 -18 45 -15 68 8 17 17 53 26 84 21 4 -1 14 3 21
9 14 11 45 4 45 -11 0 -5 12 -7 28 -4 15 3 21 2 15 -1 -14 -6 -18 -24 -5 -24
5 0 18 9 30 21 12 11 27 17 32 14 6 -4 13 1 16 9 3 9 14 16 23 16 14 -1 14 -2
-2 -14 -19 -15 -14 -41 9 -50 9 -4 14 1 14 15 0 14 4 18 13 12 6 -4 21 -8 31
-8 31 0 28 -43 -3 -60 -23 -12 -24 -14 -8 -20 9 -4 24 -2 31 4 11 9 15 9 18
-1 3 -8 13 -3 30 15 25 26 27 27 37 10 9 -16 10 -15 11 8 0 29 -20 42 -46 32
-12 -4 -15 -1 -12 13 3 13 11 18 28 16 34 -4 51 -21 44 -47 -6 -25 12 -43 28
-27 6 6 36 9 67 6 31 -2 48 -1 39 2 -21 6 -24 24 -5 24 7 0 18 9 25 20 7 12
18 18 24 14 7 -5 5 -11 -6 -20 -10 -7 -15 -18 -11 -24 5 -8 12 -7 25 5 16 15
18 14 23 -5 6 -22 36 -27 54 -9 7 7 28 13 49 16 47 5 77 21 71 38 -4 9 1 11
14 8 20 -6 26 -28 9 -38 -15 -9 -12 -25 5 -25 12 0 14 -7 9 -27 -4 -16 -9 -31
-13 -34 -9 -9 -101 2 -101 12 0 5 7 9 15 9 23 0 18 17 -7 23 -25 7 -38 1 -38
-17 0 -8 -12 -16 -26 -19 -20 -3 -28 0 -31 14 -3 11 -10 19 -17 19 -14 0 -36
-47 -36 -74 0 -20 1 -20 19 3 10 14 23 21 30 17 6 -4 9 -10 7 -14 -6 -9 46 -9
61 1 6 4 14 1 16 -5 4 -9 8 -10 14 -2 4 6 23 14 42 17 28 6 32 4 27 -9 -5 -14
-4 -15 9 -4 12 10 15 10 15 -3 0 -10 6 -14 15 -11 8 4 15 15 15 26 0 14 5 18
15 14 9 -3 15 0 15 8 0 8 9 16 20 19 12 3 20 0 20 -8 0 -16 53 -27 82 -16 22
8 21 9 -12 19 l-35 10 43 1 c37 1 44 -2 53 -25 9 -26 10 -26 24 -8 14 18 14
18 15 -8 0 -24 -4 -28 -30 -28 -16 0 -30 -5 -30 -11 0 -5 5 -7 11 -3 14 8 2
-34 -15 -55 -9 -12 -8 -13 6 -9 10 4 19 1 22 -8 8 -20 24 -17 31 6 8 24 34 23
53 -3 7 -9 18 -15 24 -11 6 4 6 10 -1 17 -14 14 -14 57 0 77 8 11 12 12 16 3
3 -9 10 -10 24 -3 13 7 19 7 19 0 0 -5 -4 -10 -10 -10 -5 0 -10 -14 -10 -31 0
-29 2 -30 30 -24 17 4 30 2 30 -3 0 -16 119 -9 125 7 3 8 1 19 -5 25 -13 13
-13 36 0 36 6 0 10 -6 10 -13 0 -20 24 -67 34 -67 4 0 6 11 4 25 -4 18 0 26
14 31 11 3 25 1 31 -5 8 -8 5 -11 -12 -11 -21 0 -23 -3 -17 -32 4 -24 3 -29
-4 -18 -8 13 -10 13 -10 -2 0 -9 3 -19 8 -21 13 -8 52 12 52 27 0 7 7 16 15
20 23 8 19 -27 -5 -42 -11 -7 -20 -18 -19 -25 0 -9 2 -9 6 1 2 6 13 12 24 12
10 0 19 5 19 10 0 6 5 10 10 10 6 0 10 -6 10 -14 0 -9 7 -12 19 -9 13 3 21 -2
25 -15 10 -30 64 -37 98 -12 29 21 68 27 68 9 0 -5 -5 -7 -10 -4 -6 3 -17 -1
-26 -9 -14 -15 -13 -16 10 -16 14 0 26 -5 26 -10 0 -7 15 -9 38 -5 20 3 31 2
25 -1 -18 -8 -16 -24 2 -24 8 0 15 -5 15 -11 0 -8 5 -7 15 1 13 10 19 10 35
-5 10 -9 16 -23 13 -31 -3 -8 0 -14 6 -14 6 0 11 5 11 11 0 6 7 17 16 26 11
12 18 13 27 4 8 -8 7 -11 -6 -11 -10 0 -17 -8 -17 -19 0 -22 -19 -31 -66 -31
-19 0 -34 -4 -34 -10 0 -5 -7 -7 -15 -4 -12 5 -15 -2 -15 -31 0 -25 4 -35 13
-32 6 2 11 14 10 25 -2 17 3 21 25 20 15 -1 36 2 47 6 16 6 17 6 5 -3 -12 -9
-13 -14 -2 -31 18 -29 15 -32 -13 -14 -25 16 -55 13 -55 -6 0 -5 9 -10 20 -10
11 0 20 -4 20 -10 0 -5 9 -10 20 -10 11 0 20 -5 20 -11 0 -6 9 -8 20 -4 12 4
20 2 20 -5 0 -8 10 -11 24 -8 25 5 37 -18 51 -96 6 -36 5 -38 -14 -33 -24 6
-27 -3 -8 -22 10 -11 8 -12 -11 -6 -26 8 -112 -28 -112 -46 0 -6 7 -9 15 -5
13 5 14 2 4 -15 -14 -27 -4 -36 16 -15 9 9 21 16 26 16 5 0 9 6 9 14 0 17 33
31 38 17 2 -6 9 -11 16 -11 7 0 13 -16 14 -36 2 -26 -1 -34 -12 -32 -8 2 -15
0 -15 -4 -2 -23 0 -28 14 -28 17 0 20 -16 4 -25 -5 -4 -18 3 -29 15 -17 20
-20 20 -43 6 -13 -9 -30 -27 -37 -41 -14 -25 -44 -33 -55 -15 -12 19 -40 10
-57 -20 -9 -17 -24 -30 -33 -30 -8 0 -15 -7 -15 -15 0 -18 -14 -19 -42 -4 -25
13 -39 1 -14 -13 15 -8 16 -12 5 -19 -8 -5 -24 -9 -36 -9 -12 0 -24 -4 -28
-10 -3 -5 15 -7 47 -3 29 3 56 12 61 19 4 7 14 11 22 8 9 -4 15 0 15 10 0 8 9
20 20 26 17 9 20 8 17 -12 -2 -19 2 -23 21 -21 21 3 22 0 17 -31 -6 -28 -4
-35 12 -38 15 -3 15 -5 -4 -10 -19 -5 -23 -2 -23 18 0 14 -6 24 -14 24 -8 0
-16 4 -18 9 -4 10 -68 2 -68 -9 0 -13 33 -21 44 -10 15 15 26 12 26 -8 0 -11
-11 -24 -25 -30 -14 -6 -25 -16 -25 -21 0 -6 -7 -8 -16 -4 -8 3 -13 12 -10 19
8 20 -48 18 -64 -1 -7 -8 -11 -15 -9 -16 2 0 12 -2 22 -4 29 -6 34 -15 13 -31
-15 -10 -23 -11 -33 -2 -7 6 -16 8 -20 4 -13 -12 8 -19 65 -22 33 -1 49 1 38
5 -19 7 -19 8 1 13 11 3 27 2 34 -3 11 -7 11 -9 1 -9 -7 0 -11 -4 -7 -9 3 -6
-3 -14 -12 -20 -27 -14 -13 -20 34 -14 29 4 44 12 54 29 7 14 21 24 33 24 15
0 17 -3 8 -8 -7 -5 -10 -16 -7 -24 4 -9 0 -18 -10 -22 -9 -3 -14 -10 -10 -15
3 -6 12 -8 19 -5 8 3 17 1 20 -4 3 -5 -3 -12 -14 -15 -39 -10 -21 -28 25 -25
26 2 43 -1 42 -7 -1 -5 -10 -10 -19 -9 -10 0 -18 0 -18 -1 0 -12 36 -68 46
-72 8 -3 14 -9 14 -14 0 -5 -9 -4 -20 3 -17 11 -22 10 -31 -2 -9 -12 -10 -10
-6 8 4 15 0 25 -10 29 -12 5 -12 7 -1 14 10 7 9 9 -3 9 -20 0 -34 -31 -19 -40
7 -5 6 -11 -5 -20 -21 -18 -19 -27 10 -34 20 -5 25 -13 25 -36 0 -20 5 -30 15
-30 24 0 29 28 10 57 -16 24 -16 26 0 20 9 -4 25 -7 36 -7 25 0 24 -25 -1 -50
-11 -11 -20 -22 -20 -25 0 -3 9 -5 20 -5 15 0 20 -7 20 -29 0 -18 7 -32 18
-36 15 -7 14 -9 -8 -15 -14 -5 -34 -8 -45 -8 -16 0 -15 2 5 8 22 6 23 8 8 15
-10 4 -26 4 -35 -1 -10 -4 -24 -6 -31 -5 -22 4 -42 -20 -42 -50 0 -31 20 -41
21 -11 0 12 3 10 10 -8 8 -20 12 -22 19 -10 7 10 10 11 10 3 0 -7 12 -13 28
-13 24 -1 25 -2 9 -11 -10 -6 -24 -8 -31 -6 -7 3 -17 -3 -24 -13 -14 -22 2
-40 37 -41 16 -1 19 -3 10 -6 -41 -11 -27 -83 16 -83 16 0 25 -6 25 -15 0 -11
11 -15 36 -15 28 0 35 3 30 15 -3 8 -1 15 4 15 5 0 11 -8 14 -17 2 -10 2 -1
-1 20 -3 24 -1 37 6 37 6 0 11 -8 11 -17 0 -14 2 -15 13 -4 10 11 10 14 0 18
-17 6 -17 33 0 33 26 0 45 -33 40 -67 -3 -18 -10 -33 -17 -33 -6 0 -17 -10
-25 -21 -11 -18 -11 -23 1 -30 9 -6 15 -3 18 9 3 9 11 27 19 38 12 18 18 20
38 11 23 -10 31 -27 13 -27 -5 0 -10 -7 -10 -15 0 -18 14 -19 32 -2 7 6 19 12
26 13 32 3 33 5 11 25 -24 21 -24 21 -1 15 12 -4 32 -4 44 0 19 6 19 7 5 16
-10 5 -17 14 -17 20 0 6 7 5 17 -3 15 -12 16 -12 10 4 -4 10 -7 23 -7 28 0 14
-28 11 -33 -3 -3 -9 -10 -7 -21 7 -20 25 -16 39 13 43 25 4 64 -30 59 -51 -8
-36 57 -7 66 29 4 15 10 23 14 18 4 -6 20 -14 35 -18 15 -4 25 -11 22 -16 -4
-6 -18 -4 -36 5 -28 15 -29 15 -29 -10 0 -14 -4 -25 -10 -25 -5 0 -10 -5 -10
-11 0 -5 5 -7 10 -4 6 3 10 1 10 -6 0 -8 -12 -10 -37 -6 -22 4 -32 3 -25 -2
10 -6 7 -10 -12 -15 -14 -3 -26 -11 -26 -16 0 -13 1 -13 41 4 68 28 178 39
279 27 257 -30 487 -243 554 -513 46 -187 22 -379 -70 -548 -46 -83 -130 -196
-186 -248 -107 -100 -114 -105 -436 -297 l-133 -80 178 -6 c103 -4 205 -13
243 -22 365 -87 604 -346 627 -678 12 -173 -48 -333 -170 -454 -125 -124 -261
-172 -456 -162 -401 21 -676 341 -707 826 -4 56 -10 101 -14 101 -4 0 -15 -21
-25 -46 -28 -74 -128 -216 -199 -282 -36 -33 -96 -79 -134 -101 -67 -39 -69
-41 -85 -100 -9 -33 -17 -68 -17 -78 0 -28 -31 -146 -47 -177 -21 -40 -91
-115 -126 -133 -16 -8 -54 -14 -87 -14 -78 0 -231 60 -263 103 -12 17 -70 80
-128 142 -71 75 -111 125 -119 151 -13 38 -13 39 -22 15 -11 -29 -25 -320 -27
-567 l-2 -173 568 5 c312 3 908 8 1323 12 997 10 954 10 1503 11 l477 2 0 58
c0 32 -5 63 -11 69 -8 8 -8 13 0 17 8 5 11 170 11 551 l0 544 -39 58 c-53 81
-84 144 -117 243 -27 78 -29 97 -29 226 0 113 -2 138 -12 125 -7 -9 -13 -19
-13 -23 0 -3 -19 -39 -41 -80 -42 -73 -92 -143 -179 -248 -25 -30 -58 -72 -74
-93 -68 -92 -138 -145 -213 -162 -34 -7 -42 -22 -22 -42 9 -9 5 -14 -16 -19
-36 -9 -59 6 -63 40 -3 21 -8 26 -32 26 -47 0 -120 61 -218 181 -231 284 -305
427 -333 645 -21 165 24 364 114 501 77 118 223 226 352 260 80 22 203 21 293
-1 40 -10 75 -16 77 -14 3 3 -4 31 -16 64 -30 83 -37 262 -15 367 21 102 65
205 128 303 28 43 54 81 57 84 4 3 37 43 75 90 93 114 148 164 212 192 30 13
57 33 63 45 6 12 22 25 36 29 l25 6 0 312 c0 305 0 312 -20 313 -11 1 -20 -2
-20 -8 0 -15 -37 -10 -44 6 -11 31 3 43 45 38 l39 -6 0 545 0 544 -60 62 -59
62 -101 0 c-72 0 -102 -4 -104 -12 -2 -7 -8 -50 -14 -95 -19 -142 -101 -283
-214 -366 -37 -28 -38 -30 -38 -91 0 -140 -59 -277 -164 -381 -112 -112 -240
-165 -395 -165 -47 0 -70 -4 -66 -10 13 -20 12 -123 0 -168 -7 -26 -22 -69
-34 -96 l-21 -48 29 -45 c58 -87 66 -222 20 -332 l-23 -53 34 -61 c45 -82 52
-173 20 -276 -19 -62 -20 -75 -8 -89 22 -27 48 -90 48 -117 0 -13 3 -31 6 -40
6 -14 9 -14 32 1 14 9 41 31 60 48 18 17 52 44 75 59 23 15 61 45 84 67 24 21
43 37 43 34 0 -3 16 7 35 21 38 29 68 31 38 2 -24 -23 -112 -91 -204 -160 -42
-31 -83 -62 -90 -69 -8 -7 -27 -24 -43 -36 -17 -13 -36 -42 -46 -71 -22 -67
-57 -115 -102 -143 -21 -13 -36 -29 -33 -36 6 -17 -24 -28 -44 -15 -9 6 -42
11 -72 11 -31 0 -75 6 -98 13 -85 25 -171 147 -171 242 0 48 24 139 46 172 12
18 11 25 -5 50 -61 101 -66 222 -13 320 l31 56 -37 71 c-35 66 -37 76 -37 162
0 83 3 97 32 152 l32 62 -30 56 c-61 112 -66 235 -13 339 l24 49 -25 75 c-25
71 -26 80 -19 222 5 100 3 150 -4 155 -5 3 -36 -1 -69 -9 -94 -24 -234 -35
-310 -24 -221 31 -406 160 -491 341 -37 79 -52 148 -52 243 l0 75 -32 0 c-92
0 -1484 45 -1865 60 -133 6 -283 10 -332 10 l-90 0 14 -32z m815 -808 c13 -8
13 -10 -2 -10 -9 0 -20 5 -23 10 -8 13 5 13 25 0z m-434 -67 c-4 -4 -11 -1
-16 7 -16 25 -11 35 7 17 9 -9 13 -20 9 -24z m79 27 c3 -5 1 -10 -4 -10 -6 0
-11 5 -11 10 0 6 2 10 4 10 3 0 8 -4 11 -10z m605 -46 c0 -2 -12 -4 -27 -4
-21 0 -24 3 -14 9 13 8 41 5 41 -5z m-131 -8 c7 -8 8 -17 3 -20 -6 -3 -12 3
-15 14 -6 24 -4 25 12 6z m-149 -36 c0 -5 -4 -10 -10 -10 -5 0 -10 5 -10 10 0
6 5 10 10 10 6 0 10 -4 10 -10z m-793 -36 c-3 -3 -12 -4 -19 -1 -8 3 -5 6 6 6
11 1 17 -2 13 -5z m1163 -4 c0 -5 -4 -10 -10 -10 -5 0 -10 5 -10 10 0 6 5 10
10 10 6 0 10 -4 10 -10z m-1285 -20 c3 -5 1 -10 -4 -10 -6 0 -11 5 -11 10 0 6
2 10 4 10 3 0 8 -4 11 -10z m1544 -65 c0 -5 -4 -3 -9 5 -8 13 -10 12 -10 -2 0
-10 -4 -18 -10 -18 -14 0 -13 16 2 40 12 18 13 19 20 2 3 -9 7 -21 7 -27z
m141 25 c0 -5 -4 -10 -10 -10 -5 0 -10 5 -10 10 0 6 5 10 10 10 6 0 10 -4 10
-10z m30 -49 c0 -6 -4 -13 -10 -16 -5 -3 -10 1 -10 9 0 9 5 16 10 16 6 0 10
-4 10 -9z m60 -7 c0 -8 -5 -12 -10 -9 -6 4 -8 11 -5 16 9 14 15 11 15 -7z
m575 -144 c3 -5 1 -10 -4 -10 -6 0 -11 5 -11 10 0 6 2 10 4 10 3 0 8 -4 11
-10z m75 -29 c0 -6 -4 -13 -10 -16 -5 -3 -10 1 -10 9 0 9 5 16 10 16 6 0 10
-4 10 -9z m-2885 -31 c3 -5 -1 -10 -9 -10 -9 0 -16 5 -16 10 0 6 4 10 9 10 6
0 13 -4 16 -10z m-65 -20 c0 -5 -4 -10 -10 -10 -5 0 -10 5 -10 10 0 6 5 10 10
10 6 0 10 -4 10 -10z m2960 -4 c0 -8 13 -23 29 -32 l29 -17 -31 -16 c-42 -22
-43 -35 -6 -71 23 -22 29 -34 22 -41 -8 -8 -15 -3 -25 18 -8 16 -21 28 -33 28
-11 0 -25 11 -31 24 -7 14 -20 28 -28 33 -20 11 -12 27 12 23 9 -1 11 0 5 2
-21 7 -15 43 10 53 33 13 47 12 47 -4z m75 -106 c3 -5 1 -10 -4 -10 -6 0 -11
5 -11 10 0 6 2 10 4 10 3 0 8 -4 11 -10z m-2 -267 c-7 -2 -19 -2 -25 0 -7 3
-2 5 12 5 14 0 19 -2 13 -5z m2318 -83 c8 -36 -3 -52 -30 -47 -13 2 -24 64
-14 80 12 19 38 0 44 -33z m-2278 13 c-7 -2 -19 -2 -25 0 -7 3 -2 5 12 5 14 0
19 -2 13 -5z m-293 -89 c0 -8 -5 -12 -10 -9 -6 4 -8 11 -5 16 9 14 15 11 15
-7z m50 -39 c0 -8 -4 -15 -10 -15 -5 0 -10 7 -10 15 0 8 5 15 10 15 6 0 10 -7
10 -15z m157 -1 c-3 -3 -12 -4 -19 -1 -8 3 -5 6 6 6 11 1 17 -2 13 -5z m2043
-52 c0 -9 -49 -82 -55 -82 -11 0 -4 27 15 58 18 29 40 43 40 24z m-2180 -11
c0 -6 -4 -13 -10 -16 -5 -3 -10 1 -10 9 0 9 5 16 10 16 6 0 10 -4 10 -9z m80
-20 c0 -12 -29 -23 -41 -15 -18 10 -9 24 16 24 14 0 25 -4 25 -9z m2140 -55
c0 -3 -4 -8 -10 -11 -5 -3 -10 -1 -10 4 0 6 5 11 10 11 6 0 10 -2 10 -4z m-30
-35 c0 -5 -15 -27 -32 -48 -43 -52 -82 -100 -113 -142 -23 -32 -24 -36 -8 -53
9 -10 12 -18 8 -18 -5 0 0 -7 11 -15 16 -12 16 -14 3 -15 -12 0 -15 -8 -13
-30 3 -27 1 -30 -26 -30 -27 0 -30 3 -30 30 0 20 5 30 15 30 23 0 18 27 -7 33
-21 6 -21 7 -3 34 10 15 27 39 39 53 13 14 29 36 38 50 16 27 107 130 114 130
2 0 4 -4 4 -9z m-2270 -30 c0 -6 -4 -13 -10 -16 -5 -3 -10 1 -10 9 0 9 5 16
10 16 6 0 10 -4 10 -9z m1870 -51 c0 -5 -7 -10 -15 -10 -8 0 -15 5 -15 10 0 6
7 10 15 10 8 0 15 -4 15 -10z m-1685 -98 c-3 -3 -17 -7 -31 -8 -24 -3 -25 -2
-8 10 17 13 52 11 39 -2z m2152 -84 c-3 -8 -6 -5 -6 6 -1 11 2 17 5 13 3 -3 4
-12 1 -19z m-2119 5 c-10 -2 -18 -11 -18 -18 0 -14 -18 -30 -25 -23 -9 9 27
48 43 47 15 -1 15 -2 0 -6z m52 -3 c-8 -5 -19 -10 -25 -10 -5 0 -3 5 5 10 8 5
20 10 25 10 6 0 3 -5 -5 -10z m25 -16 c-9 -9 -19 -13 -23 -10 -3 4 0 11 8 16
24 15 33 11 15 -6z m37 -16 c-7 -7 -12 -8 -12 -2 0 14 12 26 19 19 2 -3 -1
-11 -7 -17z m-92 -29 c0 -5 -4 -9 -10 -9 -5 0 -10 7 -10 16 0 8 5 12 10 9 6
-3 10 -10 10 -16z m70 11 c0 -5 -5 -10 -11 -10 -5 0 -7 5 -4 10 3 6 8 10 11
10 2 0 4 -4 4 -10z m-40 -34 c-14 -8 -29 -12 -34 -8 -10 6 20 20 44 21 8 0 4
-6 -10 -13z m-40 -41 c10 -12 9 -15 -8 -15 -11 0 -22 7 -26 15 -3 9 0 15 8 15
7 0 19 -7 26 -15z m70 -15 c0 -5 -2 -10 -4 -10 -3 0 -8 5 -11 10 -3 6 -1 10 4
10 6 0 11 -4 11 -10z m18 -32 c-2 -6 -10 -14 -16 -16 -7 -2 -10 2 -6 12 7 18
28 22 22 4z m-62 -54 c-5 -13 -2 -15 14 -11 11 3 18 1 14 -4 -11 -18 -44 -10
-44 11 0 11 5 20 11 20 6 0 8 -7 5 -16z m98 -5 c-8 -14 -34 -10 -34 5 0 9 7
12 20 9 11 -3 17 -9 14 -14z m66 -24 c0 -8 -2 -15 -4 -15 -2 0 -6 7 -10 15 -3
8 -1 15 4 15 6 0 10 -7 10 -15z m1493 -1 c9 -4 17 -10 17 -15 0 -16 -25 -9
-44 12 -10 12 -12 19 -4 15 7 -3 21 -9 31 -12z m-1553 -44 c7 0 9 8 5 20 -8
25 13 27 31 3 18 -25 17 -33 -5 -33 -10 0 -25 -9 -32 -21 -22 -32 -52 -15 -43
25 9 45 16 52 25 28 5 -12 13 -22 19 -22z m-139 -3 c-6 -8 -8 -17 -5 -20 4 -3
-5 -9 -20 -13 -33 -8 -33 -20 -1 -28 27 -7 33 -27 12 -45 -10 -8 -20 -4 -40
17 -33 35 -28 72 11 72 25 0 25 1 6 15 -18 14 -17 14 15 15 27 0 31 -3 22 -13z
m1517 -3 c14 -15 14 -16 -3 -13 -10 2 -20 10 -23 17 -5 17 6 15 26 -4z m-1052
-9 c-3 -10 1 -15 14 -15 10 0 22 -5 26 -12 5 -8 -3 -9 -31 -5 -46 8 -51 12
-35 32 16 19 34 20 26 0z m155 -8 c-10 -9 -11 -8 -5 6 3 10 9 15 12 12 3 -3 0
-11 -7 -18z m-85 -34 c-11 -11 -19 6 -11 24 8 17 8 17 12 0 3 -10 2 -21 -1
-24z m-63 -10 c-7 -2 -21 -2 -30 0 -10 3 -4 5 12 5 17 0 24 -2 18 -5z m1051
-342 c3 -5 -1 -12 -10 -15 -27 -10 -35 -7 -22 9 15 17 25 19 32 6z m-226 -199
c2 -7 -6 -12 -17 -12 -21 0 -27 11 -14 24 9 9 26 2 31 -12z m-123 -2774 c6
-24 4 -28 -14 -28 -16 0 -21 6 -21 28 0 52 23 52 35 0z"/>
<path d="M6940 6275 c0 -8 5 -15 10 -15 6 0 10 7 10 15 0 8 -4 15 -10 15 -5 0
-10 -7 -10 -15z"/>
<path d="M8147 7703 c-10 -3 -16 -10 -14 -16 5 -16 49 -25 75 -16 27 10 29 29
3 29 -11 0 -25 2 -33 4 -7 2 -21 2 -31 -1z"/>
<path d="M9276 7651 c-5 -7 7 -11 36 -12 24 0 58 -2 76 -3 17 -2 32 0 32 5 0
5 -15 9 -32 9 -18 0 -49 3 -69 6 -22 4 -39 2 -43 -5z"/>
<path d="M8165 7600 c-8 -13 4 -32 16 -25 12 8 12 35 0 35 -6 0 -13 -4 -16
-10z"/>
<path d="M0 6939 c0 -5 5 -7 10 -4 5 3 10 8 10 11 0 2 -4 4 -10 4 -5 0 -10 -5
-10 -11z"/>
<path d="M18 6923 c-10 -2 -18 -8 -18 -13 0 -8 69 6 79 16 6 5 -39 3 -61 -3z"/>
<path d="M0 6863 c0 -18 5 -44 11 -59 l10 -28 25 43 c29 52 30 57 4 64 -11 3
-18 1 -14 -4 8 -13 -10 -11 -24 3 -9 9 -12 5 -12 -19z"/>
<path d="M320 6850 c0 -5 -6 -10 -13 -10 -14 0 -40 -44 -31 -53 6 -6 64 52 64
64 0 5 -4 9 -10 9 -5 0 -10 -4 -10 -10z"/>
<path d="M185 6800 c3 -5 12 -7 20 -3 21 7 19 13 -6 13 -11 0 -18 -4 -14 -10z"/>
<path d="M325 6793 c-24 -14 -26 -18 -12 -21 19 -4 23 -17 7 -27 -16 -10 -11
-21 10 -22 17 -2 20 4 20 37 0 21 6 41 13 43 6 3 8 6 2 6 -5 0 -23 -7 -40 -16z"/>
<path d="M211 6759 c-13 -11 -21 -23 -17 -27 4 -4 13 0 19 9 7 9 19 18 27 21
7 2 10 7 4 10 -5 3 -20 -3 -33 -13z"/>
<path d="M370 6759 c0 -21 44 -18 48 3 2 11 -4 16 -22 14 -16 0 -26 -7 -26
-17z"/>
<path d="M270 6745 c0 -9 5 -15 11 -13 6 2 11 8 11 13 0 5 -5 11 -11 13 -6 2
-11 -4 -11 -13z"/>
<path d="M115 6710 c4 -6 11 -8 16 -5 14 9 11 15 -7 15 -8 0 -12 -5 -9 -10z"/>
<path d="M4848 6713 c7 -3 16 -2 19 1 4 3 -2 6 -13 5 -11 0 -14 -3 -6 -6z"/>
<path d="M5605 6710 c3 -5 10 -10 16 -10 5 0 9 5 9 10 0 6 -7 10 -16 10 -8 0
-12 -4 -9 -10z"/>
<path d="M255 6702 c-3 -3 -5 -12 -5 -19 0 -10 6 -12 21 -8 19 6 21 4 17 -19
-6 -32 23 -66 57 -66 14 0 25 5 25 10 0 6 -11 10 -24 10 -13 0 -29 7 -36 15
-7 8 -8 15 -2 15 5 0 7 13 3 32 -5 23 -12 32 -29 33 -12 1 -24 -1 -27 -3z"/>
<path d="M400 6694 c0 -8 5 -12 10 -9 6 4 8 11 5 16 -9 14 -15 11 -15 -7z"/>
<path d="M4816 6695 c-3 -9 0 -15 9 -15 16 0 20 16 6 24 -5 3 -11 -1 -15 -9z"/>
<path d="M183 6683 c-4 -10 -13 -22 -20 -26 -7 -5 -11 -13 -7 -18 5 -9 -22 -6
-63 6 -15 5 -24 -21 -17 -51 7 -26 24 -33 24 -9 0 8 -4 15 -10 15 -5 0 -10 7
-10 15 0 19 19 19 44 0 11 -8 30 -15 43 -15 14 0 23 -6 23 -15 0 -8 6 -15 14
-15 22 0 15 38 -9 44 -12 4 -16 9 -10 13 11 9 20 73 10 73 -3 0 -9 -8 -12 -17z"/>
<path d="M22 6670 c0 -14 2 -19 5 -12 2 6 2 18 0 25 -3 6 -5 1 -5 -13z"/>
<path d="M427 6674 c-8 -8 1 -24 14 -24 5 0 9 7 9 15 0 15 -12 20 -23 9z"/>
<path d="M5468 6650 c-15 -17 -15 -19 -1 -25 22 -8 44 27 25 39 -5 3 -16 -3
-24 -14z"/>
<path d="M370 6651 c0 -5 7 -12 16 -15 27 -10 36 -7 20 9 -16 17 -36 20 -36 6z"/>
<path d="M4547 6647 c-3 -8 -2 -20 3 -26 5 -9 8 -4 8 13 0 29 -3 32 -11 13z"/>
<path d="M5905 6650 c-3 -5 -2 -10 4 -10 5 0 13 5 16 10 3 6 2 10 -4 10 -5 0
-13 -4 -16 -10z"/>
<path d="M4796 6635 c-19 -14 -19 -15 6 -15 14 0 28 7 32 15 7 19 -13 19 -38
0z"/>
<path d="M4890 6634 c0 -8 5 -12 10 -9 6 4 8 11 5 16 -9 14 -15 11 -15 -7z"/>
<path d="M4700 6636 c0 -2 7 -7 16 -10 8 -3 12 -2 9 4 -6 10 -25 14 -25 6z"/>
<path d="M5850 6628 c0 -7 5 -20 10 -28 12 -20 33 0 24 23 -7 20 -34 23 -34 5z"/>
<path d="M230 6610 c0 -5 4 -9 9 -7 4 1 17 -9 28 -22 11 -13 26 -22 33 -19 11
3 8 11 -12 31 -27 27 -58 36 -58 17z"/>
<path d="M5905 6610 c-8 -14 3 -30 21 -30 8 0 14 9 14 20 0 21 -24 28 -35 10z"/>
<path d="M5955 6610 c-8 -14 3 -30 21 -30 8 0 14 9 14 20 0 21 -24 28 -35 10z"/>
<path d="M6125 6601 c-6 -11 9 -23 19 -14 9 9 7 23 -3 23 -6 0 -12 -4 -16 -9z"/>
<path d="M35 6590 c-3 -5 1 -10 10 -10 9 0 13 5 10 10 -3 6 -8 10 -10 10 -2 0
-7 -4 -10 -10z"/>
<path d="M90 6545 c0 -8 5 -15 10 -15 6 0 10 7 10 15 0 8 -4 15 -10 15 -5 0
-10 -7 -10 -15z"/>
<path d="M207 6536 c-4 -10 -5 -21 -2 -24 9 -9 17 6 13 25 -3 17 -4 17 -11 -1z"/>
<path d="M4395 6539 c-4 -6 -5 -12 -2 -15 2 -3 7 2 10 11 7 17 1 20 -8 4z"/>
<path d="M263 6510 c-14 -37 -2 -46 28 -22 14 12 20 25 16 35 -10 26 -32 20
-44 -13z"/>
<path d="M128 6524 c-3 -3 -4 -13 -1 -24 5 -18 5 -18 24 1 10 10 19 21 19 24
0 7 -35 6 -42 -1z"/>
<path d="M80 6500 c0 -5 4 -10 9 -10 6 0 13 5 16 10 3 6 -1 10 -9 10 -9 0 -16
-4 -16 -10z"/>
<path d="M4163 6487 c4 -10 7 -23 7 -28 0 -5 5 -9 10 -9 15 0 12 20 -7 38 -16
16 -16 16 -10 -1z"/>
<path d="M21 6453 c5 -14 8 -32 5 -40 -3 -7 1 -13 10 -13 11 0 14 6 10 20 -3
11 -9 29 -12 40 -3 11 -9 20 -14 20 -6 0 -5 -12 1 -27z"/>
<path d="M6775 6380 c3 -5 10 -10 16 -10 5 0 9 5 9 10 0 6 -7 10 -16 10 -8 0
-12 -4 -9 -10z"/>
<path d="M6730 6340 c0 -5 5 -10 10 -10 6 0 10 5 10 10 0 6 -4 10 -10 10 -5 0
-10 -4 -10 -10z"/>
<path d="M4691 6304 c0 -11 3 -14 6 -6 3 7 2 16 -1 19 -3 4 -6 -2 -5 -13z"/>
<path d="M4731 6261 c-26 -7 -40 -49 -21 -61 8 -5 8 -15 0 -34 -14 -38 -13
-56 6 -56 8 0 12 -4 9 -10 -3 -5 -2 -10 4 -10 5 0 13 5 16 11 4 6 13 8 21 5 8
-3 13 0 11 7 -1 7 4 11 11 10 6 -2 12 4 12 12 0 10 -10 15 -32 15 -32 0 -33 2
-33 39 0 24 7 47 19 60 20 22 17 23 -23 12z"/>
<path d="M4238 6243 c7 -3 16 -2 19 1 4 3 -2 6 -13 5 -11 0 -14 -3 -6 -6z"/>
<path d="M4558 6243 c7 -3 16 -2 19 1 4 3 -2 6 -13 5 -11 0 -14 -3 -6 -6z"/>
<path d="M4668 6243 c7 -3 16 -2 19 1 4 3 -2 6 -13 5 -11 0 -14 -3 -6 -6z"/>
<path d="M407 6224 c6 -16 19 -18 27 -5 3 5 -3 11 -13 14 -14 3 -18 1 -14 -9z"/>
<path d="M4160 6218 c0 -12 1 -19 3 -17 1 2 9 12 16 22 12 14 11 17 -3 17 -10
0 -16 -8 -16 -22z"/>
<path d="M4180 6164 c0 -8 5 -12 10 -9 6 4 8 11 5 16 -9 14 -15 11 -15 -7z"/>
<path d="M6720 6126 c0 -2 7 -6 15 -10 8 -3 15 -1 15 4 0 6 -7 10 -15 10 -8 0
-15 -2 -15 -4z"/>
<path d="M6924 6119 c-4 -7 -20 -8 -41 -4 -38 7 -76 -2 -68 -16 4 -5 18 -9 32
-9 25 0 25 -1 9 -19 -11 -13 -14 -21 -7 -26 6 -3 14 1 17 9 4 10 18 16 39 16
19 0 37 5 40 10 3 6 1 10 -4 10 -6 0 -11 5 -11 10 0 6 7 10 15 10 8 0 15 5 15
10 0 13 -27 13 -36 -1z"/>
<path d="M4300 6084 l-25 -15 29 3 c16 2 31 9 34 16 5 15 -6 14 -38 -4z"/>
<path d="M6720 6073 c0 -10 4 -14 8 -8 4 6 11 13 16 18 5 4 2 7 -7 7 -10 0
-17 -8 -17 -17z"/>
<path d="M6816 6071 c-3 -4 -18 -6 -32 -3 -19 3 -25 1 -20 -7 4 -6 15 -11 25
-11 11 0 21 -9 24 -21 3 -12 10 -18 17 -14 8 5 8 10 0 20 -6 7 -8 20 -4 29 6
17 -1 22 -10 7z"/>
<path d="M4955 6041 c-16 -4 -67 -5 -113 -3 -66 4 -97 1 -150 -16 -37 -12 -79
-24 -94 -27 -15 -3 -29 -14 -33 -25 -3 -11 -14 -20 -24 -20 -23 0 -58 -38 -72
-78 -9 -26 -8 -34 5 -48 15 -15 13 -40 -2 -30 -6 3 -48 -3 -110 -17 -28 -7
-122 -99 -122 -120 0 -12 -6 -39 -14 -61 -9 -27 -11 -50 -4 -79 6 -26 5 -51
-2 -73 -14 -40 -7 -194 10 -242 11 -30 14 -32 29 -18 11 10 36 16 64 16 25 0
48 4 51 9 11 17 73 -11 87 -38 13 -25 13 -24 20 34 4 33 5 87 2 120 -5 67 0
83 57 174 22 34 40 68 40 73 0 6 14 8 30 6 19 -3 30 0 30 8 0 6 16 15 36 19
39 7 101 57 115 93 5 12 17 22 27 22 10 0 23 5 28 10 7 7 19 4 36 -10 32 -24
57 -28 38 -5 -7 9 -9 19 -5 23 4 4 10 1 12 -5 3 -7 13 -13 23 -13 10 0 22 -4
25 -10 9 -14 65 -13 65 2 0 6 3 8 6 5 4 -3 15 -2 25 3 12 7 20 7 24 0 3 -5 17
-10 31 -10 21 0 24 -3 19 -22 -6 -17 -4 -20 9 -15 19 8 91 -25 100 -45 5 -10
7 -10 12 0 9 19 22 14 26 -10 2 -19 8 -22 31 -20 17 2 27 -1 27 -10 0 -10 2
-10 9 1 11 18 31 5 31 -19 0 -11 5 -17 13 -15 17 7 94 -114 107 -167 5 -24 10
-81 10 -127 0 -77 1 -83 15 -65 8 10 15 28 15 40 0 11 7 35 16 52 19 39 26
213 11 287 -5 27 -20 63 -32 80 -12 16 -25 46 -29 66 -4 20 -17 47 -29 60 -13
13 -33 41 -46 62 -12 20 -26 37 -31 37 -5 0 -15 6 -22 13 -50 51 -199 116
-322 141 -43 9 -79 15 -80 15 0 -1 -14 -5 -31 -8z m-427 -168 c-4 -34 -28 -43
-28 -10 0 25 7 37 22 37 5 0 8 -12 6 -27z m467 -123 c-3 -5 -14 -6 -25 -3 -11
3 -18 9 -15 13 3 5 14 6 25 3 11 -3 18 -9 15 -13z m-228 -6 c-3 -3 -12 -4 -19
-1 -8 3 -5 6 6 6 11 1 17 -2 13 -5z m-9 -46 c-7 -19 -38 -22 -38 -4 0 10 9 16
21 16 12 0 19 -5 17 -12z m438 -15 c-10 -10 -19 5 -10 18 6 11 8 11 12 0 2 -7
1 -15 -2 -18z m-896 8 c0 -12 -20 -25 -27 -18 -7 7 6 27 18 27 5 0 9 -4 9 -9z
m-40 -101 c0 -5 -5 -10 -11 -10 -5 0 -7 5 -4 10 3 6 8 10 11 10 2 0 4 -4 4
-10z"/>
<path d="M4198 6023 c7 -3 16 -2 19 1 4 3 -2 6 -13 5 -11 0 -14 -3 -6 -6z"/>
<path d="M6825 5890 c-8 -12 20 -24 35 -15 6 3 8 11 5 16 -8 12 -32 12 -40 -1z"/>
<path d="M6290 5875 c0 -8 5 -15 10 -15 6 0 10 7 10 15 0 8 -4 15 -10 15 -5 0
-10 -7 -10 -15z"/>
<path d="M6730 5880 c0 -5 5 -10 10 -10 6 0 10 5 10 10 0 6 -4 10 -10 10 -5 0
-10 -4 -10 -10z"/>
<path d="M6210 5852 c0 -33 63 -56 74 -27 3 9 0 15 -8 15 -8 0 -17 6 -20 13
-5 9 -7 9 -12 -1 -5 -10 -9 -10 -20 -1 -9 7 -14 8 -14 1z"/>
<path d="M6698 5838 c5 -5 16 -8 23 -6 8 3 3 7 -10 11 -17 4 -21 3 -13 -5z"/>
<path d="M4410 5830 c-8 -5 -10 -10 -5 -10 6 0 17 5 25 10 8 5 11 10 5 10 -5
0 -17 -5 -25 -10z"/>
<path d="M6187 5813 c-13 -12 -7 -23 13 -23 11 0 20 7 20 15 0 15 -21 21 -33
8z"/>
<path d="M6235 5779 c-4 -6 -5 -13 -2 -16 7 -7 27 6 27 18 0 12 -17 12 -25 -2z"/>
<path d="M6400 5756 c0 -8 -6 -16 -12 -19 -9 -3 -10 -8 -3 -16 8 -8 14 -2 22
19 6 17 7 30 2 30 -5 0 -9 -6 -9 -14z"/>
<path d="M6277 5754 c-4 -4 -7 -18 -7 -31 0 -13 -7 -26 -15 -29 -8 -4 -15 -15
-15 -25 0 -20 -24 -26 -35 -9 -9 15 -25 12 -25 -5 0 -8 7 -15 15 -15 13 0 17
-14 14 -47 0 -5 -7 -7 -15 -7 -22 3 -17 -10 9 -22 21 -9 25 -7 35 15 6 14 14
43 17 64 7 39 25 51 25 18 0 -11 4 -22 9 -26 15 -8 23 13 13 31 -7 12 -4 22 9
35 11 11 19 25 18 32 0 10 -2 10 -6 0 -7 -19 -23 -16 -31 7 -4 12 -11 18 -15
14z"/>
<path d="M6475 5709 c-6 -19 0 -38 9 -28 10 12 16 49 7 49 -5 0 -13 -9 -16
-21z"/>
<path d="M6338 5703 c-26 -7 -22 -20 12 -35 17 -7 30 -19 30 -25 0 -21 14 -15
26 10 13 28 8 48 -11 41 -7 -3 -16 -1 -20 5 -6 11 -9 12 -37 4z"/>
<path d="M6640 5700 c0 -5 9 -10 21 -10 11 0 17 5 14 10 -3 6 -13 10 -21 10
-8 0 -14 -4 -14 -10z"/>
<path d="M6564 5644 l-7 -36 -58 4 c-44 3 -60 1 -64 -10 -4 -11 1 -13 18 -8
14 3 41 -2 65 -14 23 -11 50 -20 62 -20 26 0 26 -15 -2 -35 -23 -15 -22 -15
12 -10 31 5 33 4 13 -6 -13 -7 -23 -16 -23 -21 0 -11 37 -10 45 2 4 6 15 4 30
-6 22 -14 23 -18 10 -31 -9 -8 -13 -19 -10 -24 9 -13 39 -11 53 3 9 9 12 9 12
-1 0 -7 5 -9 10 -6 17 10 11 25 -10 25 -11 0 -20 7 -20 15 0 8 -5 15 -10 15
-18 0 -35 49 -22 62 20 20 14 29 -15 27 -31 -3 -93 18 -93 31 0 5 5 12 10 15
6 3 17 19 25 36 15 27 14 29 -4 29 -15 0 -22 -9 -27 -36z"/>
<path d="M6455 5661 c-16 -3 -30 -12 -30 -19 0 -15 5 -15 55 -7 35 6 67 25 41
25 -5 0 -15 2 -23 4 -7 2 -26 1 -43 -3z"/>
<path d="M6320 5640 c0 -5 5 -10 10 -10 6 0 10 5 10 10 0 6 -4 10 -10 10 -5 0
-10 -4 -10 -10z"/>
<path d="M6307 5594 c-15 -15 -6 -24 22 -24 32 0 49 14 31 25 -6 4 -17 2 -24
-5 -10 -8 -15 -8 -18 0 -2 6 -7 8 -11 4z"/>
<path d="M6245 5550 c3 -5 13 -10 21 -10 8 0 14 5 14 10 0 6 -9 10 -21 10 -11
0 -17 -4 -14 -10z"/>
<path d="M6415 5530 c-3 -5 1 -10 9 -10 8 0 17 -10 19 -22 3 -17 5 -14 6 10 1
32 -20 45 -34 22z"/>
<path d="M6088 5523 c7 -3 16 -2 19 1 4 3 -2 6 -13 5 -11 0 -14 -3 -6 -6z"/>
<path d="M6685 5520 c7 -12 45 -14 45 -2 0 4 -11 9 -26 10 -14 1 -23 -2 -19
-8z"/>
<path d="M4940 5513 c-14 -3 -29 -9 -35 -14 -18 -18 15 -26 68 -17 28 5 61 8
74 5 31 -6 29 11 -3 23 -26 10 -59 11 -104 3z"/>
<path d="M6745 5480 c3 -5 13 -10 21 -10 8 0 12 5 9 10 -3 6 -13 10 -21 10 -8
0 -12 -4 -9 -10z"/>
<path d="M5290 5470 c0 -6 8 -13 18 -16 9 -3 30 -12 45 -20 33 -16 77 -19 77
-4 0 6 -15 19 -32 30 -35 21 -108 27 -108 10z"/>
<path d="M6631 5471 c-8 -6 -9 -11 -3 -15 6 -3 14 -1 17 5 9 14 2 20 -14 10z"/>
<path d="M6170 5450 c0 -5 -7 -10 -17 -10 -9 0 -14 -2 -11 -5 3 -3 19 -2 37 1
23 5 29 9 19 15 -18 12 -28 11 -28 -1z"/>
<path d="M6562 5438 c5 -15 28 -18 29 -3 0 6 -7 12 -17 13 -10 3 -15 -1 -12
-10z"/>
<path d="M6632 5420 c0 -14 2 -19 5 -12 2 6 2 18 0 25 -3 6 -5 1 -5 -13z"/>
<path d="M4877 5355 c-20 -8 -47 -21 -59 -30 l-22 -15 22 0 c12 0 36 9 54 20
42 26 48 25 48 -4 0 -21 5 -24 58 -29 31 -2 58 -3 60 -2 8 7 -31 53 -54 63
-32 15 -59 14 -107 -3z"/>
<path d="M6660 5350 c0 -5 5 -10 10 -10 6 0 10 5 10 10 0 6 -4 10 -10 10 -5 0
-10 -4 -10 -10z"/>
<path d="M6600 5320 c0 -5 5 -10 10 -10 6 0 10 5 10 10 0 6 -4 10 -10 10 -5 0
-10 -4 -10 -10z"/>
<path d="M5346 5283 c10 -40 12 -43 40 -43 14 0 34 -5 45 -10 16 -9 19 -7 19
10 0 32 -44 70 -80 70 -28 0 -30 -2 -24 -27z"/>
<path d="M6388 5290 c-7 -18 18 -45 27 -30 3 6 2 10 -4 10 -5 0 -11 8 -13 18
-3 14 -5 14 -10 2z"/>
<path d="M95 5280 c3 -5 17 -10 31 -10 14 0 22 4 19 10 -3 6 -17 10 -31 10
-14 0 -22 -4 -19 -10z"/>
<path d="M166 5274 c-9 -9 -14 -19 -11 -22 3 -3 13 2 22 11 9 9 14 19 11 22
-3 3 -13 -2 -22 -11z"/>
<path d="M1 5264 c0 -11 3 -14 6 -6 3 7 2 16 -1 19 -3 4 -6 -2 -5 -13z"/>
<path d="M6625 5270 c-3 -5 -2 -15 1 -24 5 -12 10 -13 30 -4 13 6 24 14 24 18
0 11 -50 19 -55 10z"/>
<path d="M6820 5270 c0 -5 5 -10 11 -10 5 0 7 5 4 10 -3 6 -8 10 -11 10 -2 0
-4 -4 -4 -10z"/>
<path d="M6893 5258 c2 -7 14 -13 27 -13 13 0 25 6 28 13 2 8 -7 12 -28 12
-21 0 -30 -4 -27 -12z"/>
<path d="M90 5250 c0 -5 5 -10 11 -10 5 0 7 5 4 10 -3 6 -8 10 -11 10 -2 0 -4
-4 -4 -10z"/>
<path d="M6615 5211 c-16 -3 -29 -11 -27 -16 4 -12 41 -27 43 -17 1 4 5 -9 8
-28 9 -43 4 -60 -17 -60 -12 0 -13 -3 -5 -11 8 -8 21 -6 46 6 20 9 41 14 46
10 6 -3 11 0 11 8 0 8 -9 17 -20 20 -22 6 -27 36 -7 56 10 11 9 14 -1 18 -6 3
-10 8 -8 12 6 9 -31 10 -69 2z"/>
<path d="M6487 5194 c3 -7 9 -14 14 -14 14 0 10 17 -5 23 -10 4 -13 1 -9 -9z"/>
<path d="M6796 5202 c-3 -5 -1 -22 4 -38 8 -29 8 -29 9 9 1 36 -3 45 -13 29z"/>
<path d="M6540 5189 c0 -5 5 -7 10 -4 6 3 10 8 10 11 0 2 -4 4 -10 4 -5 0 -10
-5 -10 -11z"/>
<path d="M4259 5154 c-12 -15 -11 -16 11 -9 35 10 49 25 23 25 -11 0 -27 -7
-34 -16z"/>
<path d="M3547 5143 c-4 -3 -7 -16 -7 -29 0 -23 17 -34 53 -34 12 -1 39 -7 59
-14 21 -7 39 -11 42 -9 3 3 -9 25 -27 49 -29 39 -36 43 -73 44 -22 0 -44 -3
-47 -7z"/>
<path d="M6550 5121 c0 -14 6 -17 25 -13 30 5 28 24 -3 29 -16 2 -22 -2 -22
-16z"/>
<path d="M3295 5080 c-3 -5 -1 -10 4 -10 6 0 11 5 11 10 0 6 -2 10 -4 10 -3 0
-8 -4 -11 -10z"/>
<path d="M4352 5078 c-7 -7 -12 -22 -12 -35 0 -21 2 -22 20 -11 20 13 27 43
12 52 -5 3 -14 0 -20 -6z"/>
<path d="M5475 5060 c2 -19 7 -51 11 -70 6 -30 8 -32 15 -15 13 35 10 85 -5
85 -8 0 -17 8 -20 18 -3 9 -3 1 -1 -18z"/>
<path d="M6525 5070 c3 -5 8 -10 11 -10 2 0 4 5 4 10 0 6 -5 10 -11 10 -5 0
-7 -4 -4 -10z"/>
<path d="M6560 5070 c0 -5 5 -10 10 -10 6 0 10 5 10 10 0 6 -4 10 -10 10 -5 0
-10 -4 -10 -10z"/>
<path d="M5820 5060 c0 -5 4 -10 9 -10 6 0 13 5 16 10 3 6 -1 10 -9 10 -9 0
-16 -4 -16 -10z"/>
<path d="M6655 5060 c3 -5 11 -10 16 -10 6 0 7 5 4 10 -3 6 -11 10 -16 10 -6
0 -7 -4 -4 -10z"/>
<path d="M6590 5039 c0 -5 5 -7 10 -4 6 3 10 8 10 11 0 2 -4 4 -10 4 -5 0 -10
-5 -10 -11z"/>
<path d="M6500 5030 c0 -5 5 -10 10 -10 6 0 10 5 10 10 0 6 -4 10 -10 10 -5 0
-10 -4 -10 -10z"/>
<path d="M5799 5003 c-5 -16 -12 -34 -14 -41 -3 -7 0 -22 5 -33 10 -18 13 -18
40 -4 17 9 30 22 30 31 0 8 11 19 25 24 35 13 31 20 -9 13 -28 -4 -34 -2 -39
16 -7 29 -26 26 -38 -6z"/>
<path d="M5085 5006 c-14 -10 -25 -11 -38 -4 -27 14 -36 -1 -12 -19 13 -9 33
-13 59 -10 24 4 47 0 60 -8 30 -20 115 -23 127 -4 16 25 3 34 -47 34 -27 0
-59 6 -71 13 -28 16 -55 15 -78 -2z"/>
<path d="M6561 5004 c0 -11 3 -14 6 -6 3 7 2 16 -1 19 -3 4 -6 -2 -5 -13z"/>
<path d="M6872 5000 c0 -14 2 -19 5 -12 2 6 2 18 0 25 -3 6 -5 1 -5 -13z"/>
<path d="M1317 4989 c3 -10 11 -19 19 -19 16 0 8 26 -11 33 -9 4 -11 -1 -8
-14z"/>
<path d="M6835 5000 c3 -5 8 -10 11 -10 2 0 4 5 4 10 0 6 -5 10 -11 10 -5 0
-7 -4 -4 -10z"/>
<path d="M6801 4954 c0 -11 3 -14 6 -6 3 7 2 16 -1 19 -3 4 -6 -2 -5 -13z"/>
<path d="M6900 4940 c0 -5 5 -10 11 -10 5 0 7 5 4 10 -3 6 -8 10 -11 10 -2 0
-4 -4 -4 -10z"/>
<path d="M6885 4900 c-3 -5 -1 -10 4 -10 6 0 11 5 11 10 0 6 -2 10 -4 10 -3 0
-8 -4 -11 -10z"/>
<path d="M6980 4894 c0 -14 3 -14 15 -4 8 7 15 14 15 16 0 2 -7 4 -15 4 -8 0
-15 -7 -15 -16z"/>
<path d="M4315 4861 c14 -45 14 -62 -2 -68 -27 -11 -195 14 -271 39 -52 18
-72 21 -72 12 0 -7 5 -16 11 -20 21 -13 86 -169 104 -248 13 -60 16 -105 12
-183 -2 -56 -2 -103 2 -103 3 0 24 7 46 15 22 8 62 14 90 15 44 0 54 4 92 42
24 23 43 48 43 55 0 21 43 53 71 53 24 0 29 5 35 37 8 43 -11 235 -26 263 -5
10 -10 28 -10 39 0 12 -6 21 -12 21 -7 0 -37 11 -66 25 -49 23 -53 23 -47 6z"/>
<path d="M4465 4850 c-3 -5 -1 -10 4 -10 6 0 11 5 11 10 0 6 -2 10 -4 10 -3 0
-8 -4 -11 -10z"/>
<path d="M5045 4837 c-27 -12 -59 -28 -70 -35 -20 -12 -20 -12 0 -27 23 -18
50 -16 50 4 0 8 6 16 14 19 9 3 11 -1 6 -17 -6 -20 -3 -21 49 -21 31 0 56 -2
56 -5 0 -16 -25 -55 -36 -55 -32 0 -43 -81 -15 -115 9 -11 23 -20 31 -20 18 0
26 -53 11 -68 -8 -8 -11 -5 -11 9 -1 18 -1 18 -11 2 -5 -10 -17 -18 -24 -18
-8 0 -15 -6 -15 -13 0 -22 -50 -58 -73 -55 -12 2 -21 9 -19 16 2 10 -2 10 -19
2 -11 -7 -28 -9 -37 -5 -28 11 -96 15 -110 6 -10 -6 -1 -20 31 -52 80 -80 96
-90 117 -79 30 16 45 13 29 -7 -13 -15 -11 -16 11 -10 14 4 29 7 33 7 5 0 6 4
3 9 -3 5 1 11 9 15 8 3 15 10 15 16 0 15 37 50 66 60 22 9 27 7 31 -10 3 -11
9 -20 13 -20 13 0 30 26 23 34 -4 4 -1 4 8 1 19 -7 94 71 94 99 0 11 6 21 14
24 10 3 12 0 8 -12 -8 -19 -8 -19 49 -5 32 8 44 16 42 28 -2 10 5 17 19 19 17
3 26 -3 33 -22 7 -19 19 -27 47 -32 26 -4 55 -21 90 -52 51 -47 52 -48 59
-121 6 -60 11 -77 30 -94 13 -11 24 -31 24 -44 0 -13 7 -35 16 -48 15 -22 14
-28 -2 -70 -20 -55 -39 -71 -29 -26 6 27 3 32 -20 41 -54 20 -74 13 -138 -53
-34 -34 -75 -89 -92 -122 -16 -33 -33 -61 -37 -63 -5 -2 -8 -9 -8 -15 0 -7 -7
-24 -14 -39 -8 -16 -11 -28 -7 -28 5 0 22 28 39 62 29 59 31 61 40 38 5 -14
26 -70 46 -125 21 -55 50 -127 65 -160 48 -101 59 -129 66 -157 11 -42 39 -61
90 -60 51 0 98 24 128 64 17 23 18 31 8 56 -10 24 -20 31 -49 35 -45 5 -119
-17 -150 -46 -21 -19 -22 -20 -16 -3 5 14 4 17 -4 12 -19 -11 -14 9 9 38 14
18 18 31 11 39 -5 7 -14 26 -20 42 -5 17 -13 38 -17 49 -6 14 -4 17 10 15 10
-2 25 -23 35 -49 15 -39 22 -45 46 -45 25 0 29 4 28 25 -1 14 -6 39 -13 55 -6
17 -34 93 -62 170 -27 77 -56 146 -64 153 -16 17 -55 0 -55 -24 0 -9 18 -62
40 -118 40 -102 50 -156 29 -156 -6 0 -9 9 -6 20 3 11 1 20 -4 20 -5 0 -14 20
-20 45 -6 25 -15 48 -20 51 -5 3 -9 13 -9 22 -1 9 -11 40 -24 67 -13 28 -21
55 -19 62 2 6 19 17 36 24 18 7 37 19 43 27 9 12 17 13 47 3 37 -13 49 -37 23
-47 -10 -4 -5 -26 25 -102 22 -53 43 -104 47 -112 5 -8 9 -32 10 -52 3 -52 38
-125 62 -131 11 -3 20 -2 20 1 0 11 -102 286 -116 314 -18 35 -18 48 1 48 8 0
15 -4 15 -9 0 -5 10 -11 23 -15 28 -7 214 -187 226 -219 5 -13 26 -50 46 -81
31 -49 40 -57 63 -54 l27 3 5 130 c3 72 8 135 12 141 4 5 -2 44 -13 85 -16 59
-20 98 -17 192 2 88 0 117 -9 117 -7 0 -13 7 -13 15 0 8 9 15 21 15 19 0 20 5
19 73 -1 39 1 80 5 90 4 10 5 21 1 24 -3 4 -6 -1 -6 -10 0 -9 -4 -17 -10 -17
-13 0 -13 21 0 55 6 17 16 25 24 22 25 -10 25 19 0 49 -22 28 -23 28 -24 7 0
-26 -18 -31 -26 -8 -7 17 -34 21 -34 5 0 -5 -6 -10 -14 -10 -22 0 -30 -19 -16
-35 10 -13 8 -15 -16 -15 -39 0 -56 -13 -48 -34 6 -16 3 -17 -17 -11 -13 4
-37 13 -54 20 l-30 13 42 1 c68 2 98 22 51 35 l-23 6 23 16 c13 9 37 17 55 18
45 4 47 5 47 16 0 6 -13 10 -30 10 -16 0 -30 -3 -30 -8 0 -8 -59 -36 -64 -31
-2 2 -8 13 -15 24 l-12 20 5 -20 c18 -72 19 -78 7 -71 -6 4 -11 16 -11 27 0
10 -7 19 -15 19 -8 0 -15 -7 -15 -15 0 -24 -19 -18 -32 10 -6 14 -18 25 -27
25 -13 0 -12 -2 2 -12 20 -16 17 -44 -8 -62 -17 -12 -18 -17 -6 -42 21 -47 23
-120 3 -138 -18 -16 -35 -11 -40 12 -1 8 7 16 18 19 14 4 20 14 20 34 0 16 -4
29 -10 29 -5 0 -10 9 -10 19 0 24 -20 38 -30 21 -6 -9 -9 -10 -15 0 -4 7 -2
16 6 21 7 4 11 11 7 14 -3 4 -16 -3 -27 -14 -12 -12 -30 -21 -41 -21 -11 0
-20 -5 -20 -10 0 -7 -6 -7 -20 0 -11 6 -20 16 -19 23 0 9 2 9 6 0 6 -16 33
-17 33 -2 0 5 5 7 10 4 9 -6 14 8 11 28 0 4 19 7 43 7 50 0 58 6 49 38 -6 24
-33 30 -33 8 0 -15 -58 -28 -66 -14 -3 4 9 8 25 8 31 0 42 14 19 23 -7 3 -1 6
15 6 29 1 38 27 12 37 -8 4 -15 10 -15 15 0 5 7 9 15 9 19 0 19 7 1 26 -8 8
-25 13 -37 12 -17 -2 -24 4 -30 22 l-7 25 -2 -25 -1 -25 -12 25 c-6 14 -12 26
-12 28 -4 6 -75 -29 -75 -38 0 -6 -5 -10 -11 -10 -6 0 -8 8 -4 19 3 11 -1 24
-11 32 -14 11 -18 10 -31 -6 -14 -20 -15 -20 -11 0 2 14 -3 21 -19 23 -13 2
-23 -1 -23 -7 0 -20 -20 -11 -29 12 -5 12 -27 39 -48 58 -34 31 -52 38 -119
49 -131 22 -174 21 -229 -3z m144 -17 c11 0 10 -5 -4 -20 -15 -17 -28 -20 -63
-16 -57 6 -76 22 -36 31 16 4 34 8 39 10 6 2 19 2 30 0 11 -3 26 -5 34 -5z
m302 -127 c-8 -15 -10 -15 -11 -2 0 17 10 32 18 25 2 -3 -1 -13 -7 -23z m-63
-11 c3 -9 -3 -13 -19 -10 -12 1 -24 9 -27 16 -3 9 3 13 19 10 12 -1 24 -9 27
-16z m-161 -16 c-3 -8 -1 -16 6 -19 6 -2 3 -6 -7 -10 -10 -4 -15 -3 -11 3 3 6
1 10 -6 10 -8 0 -8 4 1 15 16 19 24 19 17 1z m373 -36 c0 -5 -2 -10 -4 -10 -3
0 -8 5 -11 10 -3 6 -1 10 4 10 6 0 11 -4 11 -10z m37 -46 c-3 -3 -12 -4 -19
-1 -8 3 -5 6 6 6 11 1 17 -2 13 -5z m60 0 c-3 -3 -12 -4 -19 -1 -8 3 -5 6 6 6
11 1 17 -2 13 -5z m-162 -14 c3 -5 1 -10 -4 -10 -6 0 -11 5 -11 10 0 6 2 10 4
10 3 0 8 -4 11 -10z m48 -27 c3 -16 8 -35 12 -44 4 -11 0 -18 -12 -21 -15 -4
-18 3 -21 50 -3 55 11 65 21 15z m-63 -19 c0 -8 -4 -12 -10 -9 -5 3 -10 13
-10 21 0 8 5 12 10 9 6 -3 10 -13 10 -21z m40 -24 c0 -5 -2 -10 -4 -10 -3 0
-8 5 -11 10 -3 6 -1 10 4 10 6 0 11 -4 11 -10z m490 -35 c0 -5 -5 -3 -10 5 -5
8 -10 20 -10 25 0 6 5 3 10 -5 5 -8 10 -19 10 -25z m-70 11 c0 -3 -4 -8 -10
-11 -5 -3 -10 -1 -10 4 0 6 5 11 10 11 6 0 10 -2 10 -4z m-160 -21 c0 -8 -4
-15 -10 -15 -5 0 -10 7 -10 15 0 8 5 15 10 15 6 0 10 -7 10 -15z m160 -9 c0
-3 -4 -8 -10 -11 -5 -3 -10 -1 -10 4 0 6 5 11 10 11 6 0 10 -2 10 -4z m-120
-16 c0 -5 -4 -10 -10 -10 -5 0 -10 5 -10 10 0 6 5 10 10 10 6 0 10 -4 10 -10z
m-40 -20 c0 -5 -4 -10 -10 -10 -5 0 -10 5 -10 10 0 6 5 10 10 10 6 0 10 -4 10
-10z m230 0 c0 -5 -5 -10 -11 -10 -5 0 -7 5 -4 10 3 6 8 10 11 10 2 0 4 -4 4
-10z m-297 -25 c7 -16 -8 -29 -23 -20 -10 6 -2 35 10 35 4 0 10 -7 13 -15z
m234 -7 c-3 -8 -6 -5 -6 6 -1 11 2 17 5 13 3 -3 4 -12 1 -19z m78 -17 c5 -9
-31 -41 -47 -41 -15 0 -8 29 10 39 22 13 29 13 37 2z m-5 -71 c0 -5 -2 -10 -4
-10 -3 0 -8 5 -11 10 -3 6 -1 10 4 10 6 0 11 -4 11 -10z m-130 -60 c0 -5 -4
-10 -10 -10 -5 0 -10 5 -10 10 0 6 5 10 10 10 6 0 10 -4 10 -10z m-190 -10 c0
-5 -4 -10 -10 -10 -5 0 -10 5 -10 10 0 6 5 10 10 10 6 0 10 -4 10 -10z"/>
<path d="M6410 4790 c0 -5 5 -10 10 -10 6 0 10 5 10 10 0 6 -4 10 -10 10 -5 0
-10 -4 -10 -10z"/>
<path d="M6460 4756 c0 -9 -7 -16 -15 -16 -8 0 -15 5 -15 10 0 6 -4 10 -10 10
-16 0 -12 -22 8 -36 20 -16 46 -18 37 -4 -3 6 1 10 9 10 8 0 14 -6 12 -12 -19
-61 -18 -66 22 -66 45 0 72 -4 72 -9 0 -3 -8 -12 -17 -21 -16 -16 -16 -16 -10
2 6 14 4 17 -9 12 -8 -3 -18 -6 -21 -6 -3 0 0 -7 7 -15 7 -8 9 -15 5 -15 -4 0
2 -8 14 -17 18 -16 21 -32 26 -147 5 -120 7 -130 31 -159 24 -29 26 -37 22
-98 -4 -45 -12 -75 -26 -95 -12 -16 -37 -78 -56 -138 -35 -107 -35 -108 -16
-135 12 -17 22 -59 29 -126 11 -100 23 -125 58 -125 21 0 132 -53 207 -99 37
-23 70 -40 73 -38 2 3 -14 70 -38 149 -23 78 -53 184 -66 233 -14 50 -28 97
-31 105 -3 8 -7 35 -8 60 -2 28 -10 49 -20 57 -14 10 -14 13 -3 18 11 4 14 31
15 118 1 89 6 132 28 210 30 110 82 227 121 271 33 39 23 44 -86 47 -46 1 -92
6 -102 11 -23 12 -36 -18 -14 -35 29 -23 23 -87 -8 -87 -14 0 -35 30 -35 48 0
15 -5 19 -19 15 -29 -7 -34 14 -12 46 18 25 19 30 5 35 -9 3 -24 6 -35 6 -10
0 -19 4 -19 9 0 12 -27 23 -72 28 -30 3 -38 1 -38 -11z m75 -57 c11 -17 0 -20
-21 -4 -17 13 -17 14 -2 15 9 0 20 -5 23 -11z m170 -9 c3 -5 1 -10 -4 -10 -6
0 -11 5 -11 10 0 6 2 10 4 10 3 0 8 -4 11 -10z m55 -20 c0 -5 -6 -10 -12 -11
-7 0 -4 -4 7 -9 13 -6 15 -9 5 -9 -8 0 -22 4 -30 9 -13 9 -13 11 0 20 19 13
30 13 30 0z m70 -14 c0 -3 -4 -8 -10 -11 -5 -3 -10 -1 -10 4 0 6 5 11 10 11 6
0 10 -2 10 -4z m-20 -44 c0 -14 -11 -21 -26 -15 -21 8 -17 23 6 23 11 0 20 -4
20 -8z"/>
<path d="M6636 4760 c5 -4 27 -11 49 -14 45 -7 38 -2 -19 13 -22 6 -35 6 -30
1z"/>
<path d="M5820 4756 c0 -2 7 -6 15 -10 8 -3 15 -1 15 4 0 6 -7 10 -15 10 -8 0
-15 -2 -15 -4z"/>
<path d="M6268 4753 c7 -3 16 -2 19 1 4 3 -2 6 -13 5 -11 0 -14 -3 -6 -6z"/>
<path d="M5630 4730 c0 -5 5 -10 10 -10 6 0 10 5 10 10 0 6 -4 10 -10 10 -5 0
-10 -4 -10 -10z"/>
<path d="M6352 4726 c-13 -6 -22 -18 -20 -29 4 -22 23 -28 24 -7 2 29 4 31 20
16 8 -9 12 -20 9 -26 -3 -5 1 -10 10 -10 12 0 15 6 11 23 -3 12 -3 16 0 10 3
-7 12 -13 20 -13 8 0 14 -4 14 -10 0 -5 -5 -10 -11 -10 -8 0 -8 -5 1 -15 7 -8
16 -15 21 -15 5 0 6 7 3 15 -4 8 -1 15 5 15 6 0 11 5 11 10 0 6 -6 10 -14 10
-8 0 -16 5 -18 10 -2 6 -13 12 -26 13 -12 0 -22 7 -22 14 0 15 -6 15 -38 -1z"/>
<path d="M6825 4730 c-3 -5 -1 -10 4 -10 6 0 11 5 11 10 0 6 -2 10 -4 10 -3 0
-8 -4 -11 -10z"/>
<path d="M6298 4723 c7 -3 16 -2 19 1 4 3 -2 6 -13 5 -11 0 -14 -3 -6 -6z"/>
<path d="M6925 4720 c4 -6 11 -8 16 -5 14 9 11 15 -7 15 -8 0 -12 -5 -9 -10z"/>
<path d="M6278 4693 c7 -3 16 -2 19 1 4 3 -2 6 -13 5 -11 0 -14 -3 -6 -6z"/>
<path d="M6285 4664 c-20 -15 -12 -17 19 -5 11 4 15 10 10 13 -5 4 -18 0 -29
-8z"/>
<path d="M6045 4660 c3 -5 8 -10 11 -10 2 0 4 5 4 10 0 6 -5 10 -11 10 -5 0
-7 -4 -4 -10z"/>
<path d="M6220 4660 c0 -5 5 -10 10 -10 6 0 10 5 10 10 0 6 -4 10 -10 10 -5 0
-10 -4 -10 -10z"/>
<path d="M5901 4624 c0 -11 3 -14 6 -6 3 7 2 16 -1 19 -3 4 -6 -2 -5 -13z"/>
<path d="M5795 4620 c-3 -5 1 -10 10 -10 9 0 13 5 10 10 -3 6 -8 10 -10 10 -2
0 -7 -4 -10 -10z"/>
<path d="M6495 4610 c3 -5 11 -10 16 -10 6 0 7 5 4 10 -3 6 -11 10 -16 10 -6
0 -7 -4 -4 -10z"/>
<path d="M6176 4595 c-3 -8 -12 -12 -21 -9 -8 3 -15 2 -15 -4 0 -16 31 -23 46
-11 16 13 19 39 5 39 -5 0 -11 -7 -15 -15z"/>
<path d="M5820 4580 c0 -5 5 -10 10 -10 6 0 10 5 10 10 0 6 -4 10 -10 10 -5 0
-10 -4 -10 -10z"/>
<path d="M5870 4570 c0 -5 5 -10 10 -10 6 0 10 5 10 10 0 6 -4 10 -10 10 -5 0
-10 -4 -10 -10z"/>
<path d="M6291 4561 l-34 -6 26 -14 c15 -8 30 -11 33 -8 10 10 33 -25 34 -50
0 -23 23 -32 35 -13 3 6 1 10 -5 10 -8 0 -9 10 -5 30 5 23 3 30 -9 30 -19 0
-21 16 -3 23 16 7 -30 6 -72 -2z"/>
<path d="M6295 4510 c-6 -10 4 -60 12 -60 8 0 33 28 33 37 0 14 -38 34 -45 23z"/>
<path d="M6401 4506 c-6 -7 -9 -21 -5 -30 4 -10 1 -16 -7 -16 -9 -1 -7 -6 5
-15 20 -15 20 -15 0 -15 -11 0 -25 5 -32 12 -6 6 -14 9 -17 6 -6 -6 56 -48 71
-48 12 0 16 107 5 114 -5 3 -14 0 -20 -8z"/>
<path d="M4785 4460 c3 -5 8 -10 11 -10 2 0 4 5 4 10 0 6 -5 10 -11 10 -5 0
-7 -4 -4 -10z"/>
<path d="M6206 4445 c-8 -8 -19 -15 -25 -15 -6 0 -11 -6 -11 -14 0 -8 -6 -16
-12 -19 -19 -6 9 -37 33 -37 19 0 31 21 45 75 7 28 -7 33 -30 10z"/>
<path d="M4452 4380 c0 -19 2 -27 5 -17 2 9 2 25 0 35 -3 9 -5 1 -5 -18z"/>
<path d="M5438 4330 c-32 -31 -58 -64 -58 -73 0 -23 3 -22 57 17 81 57 111 69
145 57 22 -8 29 -8 25 2 -2 6 -23 17 -46 24 -24 7 -48 16 -55 21 -7 6 -31 -11
-68 -48z"/>
<path d="M4925 4270 c-3 -4 2 -11 11 -14 10 -4 13 -13 9 -26 -4 -11 -2 -20 4
-20 6 0 11 5 11 10 0 6 8 5 20 -2 16 -10 23 -10 36 4 15 15 15 17 -6 28 -35
19 -79 29 -85 20z"/>
<path d="M5570 4220 c0 -5 -8 -7 -17 -3 -10 3 -15 3 -11 -2 10 -11 -11 -35
-31 -35 -18 0 -72 -39 -55 -40 17 0 128 52 132 62 2 4 11 8 20 9 14 0 13 2 -3
9 -27 12 -35 12 -35 0z"/>
<path d="M4511 4194 c-1 -18 8 -42 18 -55 l20 -24 -13 40 c-23 68 -24 71 -25
39z"/>
<path d="M6343 4173 c-10 -21 -10 -28 -1 -34 23 -15 -1 -21 -34 -10 -28 10
-35 9 -46 -6 -18 -25 -11 -57 13 -62 11 -2 24 -9 28 -17 13 -23 50 -16 85 16
17 16 32 34 32 39 0 6 7 14 17 19 14 8 13 11 -7 17 -21 7 -22 8 -6 17 15 9 13
12 -18 29 -46 24 -49 24 -63 -8z"/>
<path d="M9405 4124 c40 -94 64 -290 47 -384 -6 -30 -9 -56 -8 -58 2 -1 18 27
37 63 19 36 53 89 77 118 l42 52 0 96 0 97 -72 11 c-40 6 -86 14 -102 18 -26
5 -28 4 -21 -13z"/>
<path d="M4594 4029 c24 -48 68 -160 96 -250 28 -90 54 -170 56 -178 3 -11 8
-11 16 -3 8 8 -10 70 -68 229 -62 172 -85 225 -111 253 l-33 35 44 -86z"/>
<path d="M6180 3812 c0 -5 11 -14 25 -20 14 -6 25 -10 25 -8 0 2 -11 11 -25
20 -14 9 -25 13 -25 8z"/>
<path d="M6500 3786 c0 -9 5 -16 10 -16 6 0 10 4 10 9 0 6 -4 13 -10 16 -5 3
-10 -1 -10 -9z"/>
<path d="M5350 3721 c0 -6 -7 -11 -15 -11 -21 0 -39 -36 -21 -43 16 -6 60 49
46 58 -6 3 -10 1 -10 -4z"/>
<path d="M1 3430 c0 -252 1 -264 16 -235 9 17 16 41 14 54 -3 26 27 101 41
101 5 0 4 9 -2 19 -15 28 -12 58 5 65 19 7 20 46 1 46 -24 0 -39 29 -41 80 -2
27 -6 54 -11 61 -4 7 -11 26 -15 43 -4 17 -7 -88 -8 -234z"/>
<path d="M1961 3524 c-6 -25 -20 -62 -31 -82 -36 -67 -31 -73 61 -70 l82 3 12
42 c7 24 22 59 34 79 12 20 18 40 14 44 -7 7 -124 30 -150 30 -6 0 -16 -21
-22 -46z"/>
<path d="M7060 3222 c0 -9 9 -23 20 -29 15 -10 25 -9 49 5 39 22 39 28 0 36
-52 10 -69 7 -69 -12z"/>
<path d="M6428 3080 c-3 -14 -6 -43 -7 -64 -2 -34 0 -38 14 -26 16 13 19 61 6
95 -7 18 -8 17 -13 -5z"/>
<path d="M5124 2907 c-23 -35 -48 -193 -60 -369 -4 -54 -11 -98 -15 -98 -5 0
-9 16 -9 35 0 42 -38 207 -50 219 -16 16 -19 2 -9 -39 6 -22 17 -76 24 -120
18 -108 24 -127 44 -123 12 2 20 35 38 148 12 80 32 196 44 258 11 63 19 115
17 117 -2 2 -13 -11 -24 -28z"/>
<path d="M8818 2933 c7 -3 16 -2 19 1 4 3 -2 6 -13 5 -11 0 -14 -3 -6 -6z"/>
<path d="M4965 2759 c-4 -6 0 -18 9 -27 15 -15 16 -15 16 5 0 25 -15 38 -25
22z"/>
<path d="M3580 2627 c0 -278 22 -976 32 -994 8 -17 20 -23 44 -23 30 0 35 5
70 76 l37 76 -16 66 c-9 37 -19 94 -23 127 -3 33 -17 81 -30 107 -13 25 -36
91 -51 145 -24 89 -27 113 -26 252 1 112 -2 164 -12 188 -8 18 -16 33 -19 33
-4 0 -6 -24 -6 -53z"/>
<path d="M5044 2315 c-4 -8 -3 -27 1 -42 l6 -26 14 27 c14 27 11 56 -6 56 -5
0 -12 -7 -15 -15z"/>
<path d="M5060 2220 c0 -5 5 -10 10 -10 6 0 10 5 10 10 0 6 -4 10 -10 10 -5 0
-10 -4 -10 -10z"/>
<path d="M5050 2158 c0 -34 10 -59 21 -52 14 8 11 38 -6 60 -14 18 -14 18 -15
-8z"/>
<path d="M6428 1443 c6 -2 18 -2 25 0 6 3 1 5 -13 5 -14 0 -19 -2 -12 -5z"/>
<path d="M6688 1443 c6 -2 18 -2 25 0 6 3 1 5 -13 5 -14 0 -19 -2 -12 -5z"/>
<path d="M5770 1430 c0 -13 30 -13 50 0 11 7 7 10 -17 10 -18 0 -33 -4 -33
-10z"/>
<path d="M2798 1412 c-220 -2 -228 -3 -228 -22 0 -21 16 -28 22 -10 2 5 38 11
81 13 46 2 72 0 65 -5 -8 -5 8 -6 37 -2 96 13 253 16 274 4 13 -6 21 -7 21 -1
0 5 8 12 18 14 11 3 7 5 -10 6 -14 0 -32 2 -40 4 -7 1 -115 1 -240 -1z"/>
<path d="M3120 1409 c0 -5 11 -9 25 -9 14 0 25 -4 25 -10 0 -5 7 -10 16 -10 9
0 12 -5 8 -12 -4 -7 9 -2 29 9 21 13 39 18 42 12 4 -5 26 -9 51 -9 28 0 43 -4
39 -10 -3 -6 4 -10 17 -10 18 0 20 2 8 10 -12 8 -12 10 3 16 9 3 23 2 30 -4
10 -8 173 -9 197 -1 3 1 8 1 13 0 4 0 7 8 7 19 0 19 -6 20 -255 19 -150 0
-255 -4 -255 -10z"/>
<path d="M1505 1400 c3 -5 8 -10 11 -10 2 0 4 5 4 10 0 6 -5 10 -11 10 -5 0
-7 -4 -4 -10z"/>
<path d="M1600 1401 c19 -3 76 -3 125 0 88 5 87 6 -35 6 -69 0 -109 -2 -90 -6z"/>
<path d="M2050 1400 c0 -11 -2 -11 108 -13 60 -2 82 1 82 11 0 9 -26 12 -95
12 -57 0 -95 -4 -95 -10z"/>
<path d="M2455 1400 c-3 -5 -16 -10 -27 -10 -45 0 -9 -10 54 -14 63 -5 78 0
78 30 0 9 -99 3 -105 -6z"/>
<path d="M808 1393 c7 -3 16 -2 19 1 4 3 -2 6 -13 5 -11 0 -14 -3 -6 -6z"/>
<path d="M848 1393 c6 -2 18 -2 25 0 6 3 1 5 -13 5 -14 0 -19 -2 -12 -5z"/>
<path d="M953 1393 c31 -2 83 -2 115 0 31 2 5 3 -58 3 -63 0 -89 -1 -57 -3z"/>
<path d="M1138 1393 c7 -3 16 -2 19 1 4 3 -2 6 -13 5 -11 0 -14 -3 -6 -6z"/>
<path d="M1193 1393 c9 -2 23 -2 30 0 6 3 -1 5 -18 5 -16 0 -22 -2 -12 -5z"/>
<path d="M1921 1392 c-28 -9 -7 -21 32 -18 23 2 48 4 55 5 7 1 11 5 7 10 -5 9
-69 11 -94 3z"/>
<path d="M27 1383 c18 -2 50 -2 70 0 21 2 7 4 -32 4 -38 0 -55 -2 -38 -4z"/>
<path d="M243 1383 c15 -2 39 -2 55 0 15 2 2 4 -28 4 -30 0 -43 -2 -27 -4z"/>
<path d="M1848 1383 c7 -3 16 -2 19 1 4 3 -2 6 -13 5 -11 0 -14 -3 -6 -6z"/>
<path d="M3115 1380 c-3 -6 1 -7 9 -4 18 7 21 14 7 14 -6 0 -13 -4 -16 -10z"/>
<path d="M5178 1183 c7 -3 16 -2 19 1 4 3 -2 6 -13 5 -11 0 -14 -3 -6 -6z"/>
<path d="M3780 941 c0 -16 -10 -49 -22 -72 -11 -23 -32 -91 -44 -153 -20 -95
-22 -119 -12 -168 9 -52 9 -58 -11 -79 -11 -12 -18 -26 -15 -30 3 -5 7 -80 9
-166 2 -87 7 -184 11 -215 l6 -58 1075 0 1076 0 -7 132 c-4 73 -11 158 -16
188 -57 329 -76 401 -130 482 -18 26 -28 53 -25 66 3 19 -1 22 -25 22 -26 0
-29 -4 -41 -55 -7 -30 -16 -55 -20 -55 -10 0 -56 70 -69 105 -5 14 -20 27 -32
29 -44 9 -124 18 -197 22 -41 2 -100 11 -133 19 -55 15 -62 15 -131 -6 -173
-52 -288 -72 -492 -85 -167 -11 -491 35 -732 102 -20 6 -23 3 -23 -25z m1192
-126 c10 2 20 -5 23 -15 5 -15 18 -20 68 -23 34 -2 19 -3 -33 -3 l-95 1 -3 29
c-3 24 -1 28 10 19 7 -6 21 -9 30 -8z"/>
</g>
</svg>
